<?xml version="1.0" encoding="UTF-8" standalone="no"?>
<!-- Created with Inkscape (http://www.inkscape.org/) -->

<svg
   version="1.1"
   id="svg1"
   width="310"
   height="76.93335"
   viewBox="0 0 310 76.93335"
   xmlns="http://www.w3.org/2000/svg"
   xmlns:svg="http://www.w3.org/2000/svg">
  <defs
     id="defs1">
    <clipPath
       clipPathUnits="userSpaceOnUse"
       id="clipPath89">
      <path
         d="m 189.8,141.6 h 232.8 v 57.7 H 189.8 Z"
         clip-rule="evenodd"
         id="path89" />
    </clipPath>
    <clipPath
       clipPathUnits="userSpaceOnUse"
       id="clipPath91">
      <path
         d="m 189.8,141.6 h 232.8 v 57.7 H 189.8 Z"
         clip-rule="evenodd"
         id="path91" />
    </clipPath>
    <clipPath
       clipPathUnits="userSpaceOnUse"
       id="clipPath93">
      <path
         d="m 189.8,141.6 h 232.8 v 57.7 H 189.8 Z"
         clip-rule="evenodd"
         id="path93" />
    </clipPath>
    <clipPath
       clipPathUnits="userSpaceOnUse"
       id="clipPath95">
      <path
         d="m 189.8,141.6 h 232.8 v 57.7 H 189.8 Z"
         clip-rule="evenodd"
         id="path95" />
    </clipPath>
    <clipPath
       clipPathUnits="userSpaceOnUse"
       id="clipPath97">
      <path
         d="m 189.8,141.6 h 232.8 v 57.7 H 189.8 Z"
         clip-rule="evenodd"
         id="path97" />
    </clipPath>
    <clipPath
       clipPathUnits="userSpaceOnUse"
       id="clipPath99">
      <path
         d="m 189.8,141.6 h 232.8 v 57.7 H 189.8 Z"
         clip-rule="evenodd"
         id="path99" />
    </clipPath>
    <clipPath
       clipPathUnits="userSpaceOnUse"
       id="clipPath101">
      <path
         d="m 189.8,141.6 h 232.8 v 57.7 H 189.8 Z"
         clip-rule="evenodd"
         id="path101" />
    </clipPath>
    <clipPath
       clipPathUnits="userSpaceOnUse"
       id="clipPath102">
      <path
         d="m 189.8,141.6 h 232.8 v 57.7 H 189.8 Z"
         transform="matrix(1,0,0,-0.98449998,-212.19998,163.32855)"
         clip-rule="evenodd"
         id="path102" />
    </clipPath>
    <clipPath
       clipPathUnits="userSpaceOnUse"
       id="clipPath104">
      <path
         d="m 189.8,141.6 h 232.8 v 57.7 H 189.8 Z"
         clip-rule="evenodd"
         id="path104" />
    </clipPath>
    <clipPath
       clipPathUnits="userSpaceOnUse"
       id="clipPath105">
      <path
         d="m 189.8,141.6 h 232.8 v 57.7 H 189.8 Z"
         transform="matrix(1,0,0,-0.98449998,-216.99998,147.97035)"
         clip-rule="evenodd"
         id="path105" />
    </clipPath>
    <clipPath
       clipPathUnits="userSpaceOnUse"
       id="clipPath107">
      <path
         d="m 189.8,141.6 h 232.8 v 57.7 H 189.8 Z"
         clip-rule="evenodd"
         id="path107" />
    </clipPath>
    <clipPath
       clipPathUnits="userSpaceOnUse"
       id="clipPath108">
      <path
         d="m 189.8,141.6 h 232.8 v 57.7 H 189.8 Z"
         transform="matrix(1,0,0,-0.98449998,-245.30003,147.97035)"
         clip-rule="evenodd"
         id="path108" />
    </clipPath>
    <clipPath
       clipPathUnits="userSpaceOnUse"
       id="clipPath110">
      <path
         d="m 189.8,141.6 h 232.8 v 57.7 H 189.8 Z"
         clip-rule="evenodd"
         id="path110" />
    </clipPath>
    <clipPath
       clipPathUnits="userSpaceOnUse"
       id="clipPath111">
      <path
         d="m 189.8,141.6 h 232.8 v 57.7 H 189.8 Z"
         transform="matrix(1,0,0,-0.98449998,-277.80001,147.97035)"
         clip-rule="evenodd"
         id="path111" />
    </clipPath>
    <clipPath
       clipPathUnits="userSpaceOnUse"
       id="clipPath113">
      <path
         d="m 189.8,141.6 h 232.8 v 57.7 H 189.8 Z"
         clip-rule="evenodd"
         id="path113" />
    </clipPath>
    <clipPath
       clipPathUnits="userSpaceOnUse"
       id="clipPath114">
      <path
         d="m 189.8,141.6 h 232.8 v 57.7 H 189.8 Z"
         transform="matrix(1,0,0,-0.98449998,-340.40003,184.59375)"
         clip-rule="evenodd"
         id="path114" />
    </clipPath>
    <clipPath
       clipPathUnits="userSpaceOnUse"
       id="clipPath116">
      <path
         d="m 189.8,141.6 h 232.8 v 57.7 H 189.8 Z"
         clip-rule="evenodd"
         id="path116" />
    </clipPath>
    <clipPath
       clipPathUnits="userSpaceOnUse"
       id="clipPath117">
      <path
         d="m 189.8,141.6 h 232.8 v 57.7 H 189.8 Z"
         transform="matrix(1,0,0,-0.98449998,-320.30003,163.32855)"
         clip-rule="evenodd"
         id="path117" />
    </clipPath>
    <clipPath
       clipPathUnits="userSpaceOnUse"
       id="clipPath119">
      <path
         d="m 189.8,141.6 h 232.8 v 57.7 H 189.8 Z"
         clip-rule="evenodd"
         id="path119" />
    </clipPath>
    <clipPath
       clipPathUnits="userSpaceOnUse"
       id="clipPath120">
      <path
         d="m 189.8,141.6 h 232.8 v 57.7 H 189.8 Z"
         transform="matrix(1,0,0,-0.98449998,-324.50003,147.97035)"
         clip-rule="evenodd"
         id="path120" />
    </clipPath>
    <clipPath
       clipPathUnits="userSpaceOnUse"
       id="clipPath122">
      <path
         d="m 189.8,141.6 h 232.8 v 57.7 H 189.8 Z"
         clip-rule="evenodd"
         id="path122" />
    </clipPath>
    <clipPath
       clipPathUnits="userSpaceOnUse"
       id="clipPath123">
      <path
         d="m 189.8,141.6 h 232.8 v 57.7 H 189.8 Z"
         transform="matrix(1,0,0,-0.98449998,-352.80001,147.97035)"
         clip-rule="evenodd"
         id="path123" />
    </clipPath>
    <clipPath
       clipPathUnits="userSpaceOnUse"
       id="clipPath125">
      <path
         d="m 189.8,141.6 h 232.8 v 57.7 H 189.8 Z"
         clip-rule="evenodd"
         id="path125" />
    </clipPath>
    <clipPath
       clipPathUnits="userSpaceOnUse"
       id="clipPath126">
      <path
         d="m 189.8,141.6 h 232.8 v 57.7 H 189.8 Z"
         transform="matrix(1,0,0,-0.98449998,-385.29998,147.97035)"
         clip-rule="evenodd"
         id="path126" />
    </clipPath>
    <clipPath
       clipPathUnits="userSpaceOnUse"
       id="clipPath128">
      <path
         d="m 189.8,141.6 h 232.8 v 57.7 H 189.8 Z"
         clip-rule="evenodd"
         id="path128" />
    </clipPath>
    <clipPath
       clipPathUnits="userSpaceOnUse"
       id="clipPath130">
      <path
         d="m 189.8,141.6 h 232.8 v 57.7 H 189.8 Z"
         clip-rule="evenodd"
         id="path130" />
    </clipPath>
    <clipPath
       clipPathUnits="userSpaceOnUse"
       id="clipPath132">
      <path
         d="m 189.8,141.6 h 232.8 v 57.7 H 189.8 Z"
         clip-rule="evenodd"
         id="path132" />
    </clipPath>
    <clipPath
       clipPathUnits="userSpaceOnUse"
       id="clipPath134">
      <path
         d="m 189.8,141.6 h 232.8 v 57.7 H 189.8 Z"
         clip-rule="evenodd"
         id="path134" />
    </clipPath>
    <clipPath
       clipPathUnits="userSpaceOnUse"
       id="clipPath136">
      <path
         d="m 189.8,141.6 h 232.8 v 57.7 H 189.8 Z"
         clip-rule="evenodd"
         id="path136" />
    </clipPath>
    <clipPath
       clipPathUnits="userSpaceOnUse"
       id="clipPath138">
      <path
         d="m 189.8,141.6 h 232.8 v 57.7 H 189.8 Z"
         clip-rule="evenodd"
         id="path138" />
    </clipPath>
    <clipPath
       clipPathUnits="userSpaceOnUse"
       id="clipPath139">
      <path
         d="m 189.8,141.6 h 232.8 v 57.7 H 189.8 Z"
         transform="matrix(1,0,0,-0.98449998,-232.29998,184.59375)"
         clip-rule="evenodd"
         id="path139" />
    </clipPath>
    <clipPath
       clipPathUnits="userSpaceOnUse"
       id="clipPath141">
      <path
         d="m 189.8,141.6 h 232.8 v 57.7 H 189.8 Z"
         clip-rule="evenodd"
         id="path141" />
    </clipPath>
  </defs>
  <g
     id="g49"
     transform="translate(-1089.0664,-790.26666)">
    <path
       id="path88"
       d="m 229.5,193.5 -6.8,-2.3 v 4.6 z"
       style="fill:#000000;fill-opacity:1;fill-rule:evenodd;stroke:none"
       transform="matrix(1.3333333,0,0,-1.3333333,836,1056)"
       clip-path="url(#clipPath89)" />
    <path
       id="path90"
       d="M 189.8,193.5 H 224"
       style="fill:none;stroke:#000000;stroke-width:0.1;stroke-linecap:butt;stroke-linejoin:miter;stroke-miterlimit:10;stroke-dasharray:none;stroke-opacity:1"
       transform="matrix(1.3333333,0,0,-1.3333333,836,1056)"
       clip-path="url(#clipPath91)" />
    <path
       id="path92"
       d="m 337.2,187.8 -6.8,-2.3 v 4.6 z"
       style="fill:#000000;fill-opacity:1;fill-rule:evenodd;stroke:none"
       transform="matrix(1.3333333,0,0,-1.3333333,836,1056)"
       clip-path="url(#clipPath93)" />
    <path
       id="path94"
       d="m 320.2,187.8 h 11.6"
       style="fill:none;stroke:#000000;stroke-width:0.1;stroke-linecap:butt;stroke-linejoin:miter;stroke-miterlimit:10;stroke-dasharray:none;stroke-opacity:1"
       transform="matrix(1.3333333,0,0,-1.3333333,836,1056)"
       clip-path="url(#clipPath95)" />
    <path
       id="path96"
       d="m 422.3,193.5 -6.8,-2.3 v 4.6 z"
       style="fill:#000000;fill-opacity:1;fill-rule:evenodd;stroke:none"
       transform="matrix(1.3333333,0,0,-1.3333333,836,1056)"
       clip-path="url(#clipPath97)" />
    <path
       id="path98"
       d="m 354.2,193.5 h 62.6"
       style="fill:none;stroke:#000000;stroke-width:0.1;stroke-linecap:butt;stroke-linejoin:miter;stroke-miterlimit:10;stroke-dasharray:none;stroke-opacity:1"
       transform="matrix(1.3333333,0,0,-1.3333333,836,1056)"
       clip-path="url(#clipPath99)" />
    <path
       id="path100"
       d="m 252.2,141.7 h -45.4 v 34.6 h 90.7 v -34.6 z"
       style="fill:#ffffff;fill-opacity:1;fill-rule:evenodd;stroke:#000000;stroke-width:1;stroke-linecap:butt;stroke-linejoin:round;stroke-miterlimit:10;stroke-dasharray:none;stroke-opacity:1"
       transform="matrix(1.3333333,0,0,-1.3333333,836,1056)"
       clip-path="url(#clipPath101)" />
    <text
       id="text101"
       xml:space="preserve"
       transform="matrix(1.3333333,0,0,1.3543254,1118.9333,834.8)"
       clip-path="url(#clipPath102)"><tspan
         style="font-variant:normal;font-weight:normal;font-size:7.0884px;font-family:Arial;writing-mode:lr-tb;fill:#000000;fill-opacity:1;fill-rule:nonzero;stroke:none"
         x="0 4.7988467 6.400825 10.299445 13.900352"
         y="0"
         id="tspan101">Block</tspan></text>
    <path
       id="path103"
       d="M 223.8,147.5 H 212.5 V 159 h 22.7 v -11.5 z"
       style="fill:#ffffff;fill-opacity:1;fill-rule:evenodd;stroke:#000000;stroke-width:1;stroke-linecap:butt;stroke-linejoin:round;stroke-miterlimit:10;stroke-dasharray:none;stroke-opacity:1"
       transform="matrix(1.3333333,0,0,-1.3333333,836,1056)"
       clip-path="url(#clipPath104)" />
    <text
       id="text104"
       xml:space="preserve"
       transform="matrix(1.3333333,0,0,1.3543254,1125.3333,855.6)"
       clip-path="url(#clipPath105)"><tspan
         style="font-variant:normal;font-weight:normal;font-size:7.0884px;font-family:Arial;writing-mode:lr-tb;fill:#000000;fill-opacity:1;fill-rule:nonzero;stroke:none"
         x="0 1.9989288 3.8986199 7.8964777"
         y="0"
         id="tspan104">Item</tspan></text>
    <path
       id="path106"
       d="M 252.2,147.5 H 240.8 V 159 h 22.7 v -11.5 z"
       style="fill:#ffffff;fill-opacity:1;fill-rule:evenodd;stroke:#000000;stroke-width:1;stroke-linecap:butt;stroke-linejoin:round;stroke-miterlimit:10;stroke-dasharray:none;stroke-opacity:1"
       transform="matrix(1.3333333,0,0,-1.3333333,836,1056)"
       clip-path="url(#clipPath107)" />
    <text
       id="text107"
       xml:space="preserve"
       transform="matrix(1.3333333,0,0,1.3543254,1163.0667,855.6)"
       clip-path="url(#clipPath108)"><tspan
         style="font-variant:normal;font-weight:normal;font-size:7.0884px;font-family:Arial;writing-mode:lr-tb;fill:#000000;fill-opacity:1;fill-rule:nonzero;stroke:none"
         x="0 1.9989288 3.9978576 7.9957151"
         y="0"
         id="tspan107">Item</tspan></text>
    <path
       id="path109"
       d="M 280.5,147.5 H 269.2 V 159 h 22.7 v -11.5 z"
       style="fill:#ffffff;fill-opacity:1;fill-rule:evenodd;stroke:#000000;stroke-width:1;stroke-linecap:butt;stroke-linejoin:round;stroke-miterlimit:10;stroke-dasharray:none;stroke-opacity:1"
       transform="matrix(1.3333333,0,0,-1.3333333,836,1056)"
       clip-path="url(#clipPath110)" />
    <text
       id="text110"
       xml:space="preserve"
       transform="matrix(1.3333333,0,0,1.3543254,1206.4,855.6)"
       clip-path="url(#clipPath111)"><tspan
         style="font-variant:normal;font-weight:normal;font-size:7.0884px;font-family:Arial;writing-mode:lr-tb;fill:#000000;fill-opacity:1;fill-rule:nonzero;stroke:none"
         x="0 1.9989288 3.9978576"
         y="0"
         id="tspan110">...</tspan></text>
    <path
       id="path112"
       d="m 348.6,182 h -11.4 v 17.3 h 22.7 V 182 Z"
       style="fill:#ffffff;fill-opacity:1;fill-rule:evenodd;stroke:#000000;stroke-width:1;stroke-linecap:butt;stroke-linejoin:round;stroke-miterlimit:10;stroke-dasharray:none;stroke-opacity:1"
       transform="matrix(1.3333333,0,0,-1.3333333,836,1056)"
       clip-path="url(#clipPath113)" />
    <text
       id="text113"
       xml:space="preserve"
       transform="matrix(1.3333333,0,0,1.3543254,1289.8667,806)"
       clip-path="url(#clipPath114)"><tspan
         style="font-variant:normal;font-weight:normal;font-size:7.0884px;font-family:Arial;writing-mode:lr-tb;fill:#000000;fill-opacity:1;fill-rule:nonzero;stroke:none"
         x="0 5.0965595 9.0944176 12.695324"
         y="0"
         id="tspan113">Hash</tspan></text>
    <path
       id="path115"
       d="m 359.9,141.7 h -45.4 v 34.6 h 90.8 v -34.6 z"
       style="fill:#ffffff;fill-opacity:1;fill-rule:evenodd;stroke:#000000;stroke-width:1;stroke-linecap:butt;stroke-linejoin:round;stroke-miterlimit:10;stroke-dasharray:none;stroke-opacity:1"
       transform="matrix(1.3333333,0,0,-1.3333333,836,1056)"
       clip-path="url(#clipPath116)" />
    <text
       id="text116"
       xml:space="preserve"
       transform="matrix(1.3333333,0,0,1.3543254,1263.0667,834.8)"
       clip-path="url(#clipPath117)"><tspan
         style="font-variant:normal;font-weight:normal;font-size:7.0884px;font-family:Arial;writing-mode:lr-tb;fill:#000000;fill-opacity:1;fill-rule:nonzero;stroke:none"
         x="0 4.7988467 6.400825 10.299445 13.900352"
         y="0"
         id="tspan116">Block</tspan></text>
    <path
       id="path118"
       d="M 331.6,147.5 H 320.2 V 159 h 22.7 v -11.5 z"
       style="fill:#ffffff;fill-opacity:1;fill-rule:evenodd;stroke:#000000;stroke-width:1;stroke-linecap:butt;stroke-linejoin:round;stroke-miterlimit:10;stroke-dasharray:none;stroke-opacity:1"
       transform="matrix(1.3333333,0,0,-1.3333333,836,1056)"
       clip-path="url(#clipPath119)" />
    <text
       id="text119"
       xml:space="preserve"
       transform="matrix(1.3333333,0,0,1.3543254,1268.6667,855.6)"
       clip-path="url(#clipPath120)"><tspan
         style="font-variant:normal;font-weight:normal;font-size:7.0884px;font-family:Arial;writing-mode:lr-tb;fill:#000000;fill-opacity:1;fill-rule:nonzero;stroke:none"
         x="0 1.9989288 3.9978576 7.8964777"
         y="0"
         id="tspan119">Item</tspan></text>
    <path
       id="path121"
       d="M 359.9,147.5 H 348.6 V 159 h 22.7 v -11.5 z"
       style="fill:#ffffff;fill-opacity:1;fill-rule:evenodd;stroke:#000000;stroke-width:1;stroke-linecap:butt;stroke-linejoin:round;stroke-miterlimit:10;stroke-dasharray:none;stroke-opacity:1"
       transform="matrix(1.3333333,0,0,-1.3333333,836,1056)"
       clip-path="url(#clipPath122)" />
    <text
       id="text122"
       xml:space="preserve"
       transform="matrix(1.3333333,0,0,1.3543254,1306.4,855.6)"
       clip-path="url(#clipPath123)"><tspan
         style="font-variant:normal;font-weight:normal;font-size:7.0884px;font-family:Arial;writing-mode:lr-tb;fill:#000000;fill-opacity:1;fill-rule:nonzero;stroke:none"
         x="0 1.9989288 3.9978576 7.9957151"
         y="0"
         id="tspan122">Item</tspan></text>
    <path
       id="path124"
       d="M 388.3,147.5 H 376.9 V 159 h 22.7 v -11.5 z"
       style="fill:#ffffff;fill-opacity:1;fill-rule:evenodd;stroke:#000000;stroke-width:1;stroke-linecap:butt;stroke-linejoin:round;stroke-miterlimit:10;stroke-dasharray:none;stroke-opacity:1"
       transform="matrix(1.3333333,0,0,-1.3333333,836,1056)"
       clip-path="url(#clipPath125)" />
    <text
       id="text125"
       xml:space="preserve"
       transform="matrix(1.3333333,0,0,1.3543254,1349.7333,855.6)"
       clip-path="url(#clipPath126)"><tspan
         style="font-variant:normal;font-weight:normal;font-size:7.0884px;font-family:Arial;writing-mode:lr-tb;fill:#000000;fill-opacity:1;fill-rule:nonzero;stroke:none"
         x="0 1.9989288 3.9978576"
         y="0"
         id="tspan125">...</tspan></text>
    <path
       id="path127"
       d="m 320.2,176.3 v 11.5"
       style="fill:none;stroke:#000000;stroke-width:1;stroke-linecap:butt;stroke-linejoin:round;stroke-miterlimit:10;stroke-dasharray:none;stroke-opacity:1"
       transform="matrix(1.3333333,0,0,-1.3333333,836,1056)"
       clip-path="url(#clipPath128)" />
    <path
       id="path129"
       d="m 229.5,187.8 -6.8,-2.3 v 4.6 z"
       style="fill:#000000;fill-opacity:1;fill-rule:evenodd;stroke:none"
       transform="matrix(1.3333333,0,0,-1.3333333,836,1056)"
       clip-path="url(#clipPath130)" />
    <path
       id="path131"
       d="M 212.5,187.8 H 224"
       style="fill:none;stroke:#000000;stroke-width:0.1;stroke-linecap:butt;stroke-linejoin:miter;stroke-miterlimit:10;stroke-dasharray:none;stroke-opacity:1"
       transform="matrix(1.3333333,0,0,-1.3333333,836,1056)"
       clip-path="url(#clipPath132)" />
    <path
       id="path133"
       d="m 337.2,193.5 -6.8,-2.3 v 4.6 z"
       style="fill:#000000;fill-opacity:1;fill-rule:evenodd;stroke:none"
       transform="matrix(1.3333333,0,0,-1.3333333,836,1056)"
       clip-path="url(#clipPath134)" />
    <path
       id="path135"
       d="m 252.2,193.5 h 79.6"
       style="fill:none;stroke:#000000;stroke-width:0.1;stroke-linecap:butt;stroke-linejoin:miter;stroke-miterlimit:10;stroke-dasharray:none;stroke-opacity:1"
       transform="matrix(1.3333333,0,0,-1.3333333,836,1056)"
       clip-path="url(#clipPath136)" />
    <path
       id="path137"
       d="m 240.8,182 h -11.3 v 17.3 h 22.7 V 182 Z"
       style="fill:#ffffff;fill-opacity:1;fill-rule:evenodd;stroke:#000000;stroke-width:1;stroke-linecap:butt;stroke-linejoin:round;stroke-miterlimit:10;stroke-dasharray:none;stroke-opacity:1"
       transform="matrix(1.3333333,0,0,-1.3333333,836,1056)"
       clip-path="url(#clipPath138)" />
    <text
       id="text138"
       xml:space="preserve"
       transform="matrix(1.3333333,0,0,1.3543254,1145.7333,806)"
       clip-path="url(#clipPath139)"><tspan
         style="font-variant:normal;font-weight:normal;font-size:7.0884px;font-family:Arial;writing-mode:lr-tb;fill:#000000;fill-opacity:1;fill-rule:nonzero;stroke:none"
         x="0 5.0965595 9.0944176 12.695324"
         y="0"
         id="tspan138">Hash</tspan></text>
    <path
       id="path140"
       d="m 212.5,176.3 v 11.5"
       style="fill:none;stroke:#000000;stroke-width:1;stroke-linecap:butt;stroke-linejoin:round;stroke-miterlimit:10;stroke-dasharray:none;stroke-opacity:1"
       transform="matrix(1.3333333,0,0,-1.3333333,836,1056)"
       clip-path="url(#clipPath141)" />
  </g>
</svg>
