<?xml version="1.0" encoding="UTF-8" standalone="no"?>
<!-- Created with Inkscape (http://www.inkscape.org/) -->

<svg
   version="1.1"
   id="svg1"
   width="315.20007"
   height="69.06665"
   viewBox="0 0 315.20007 69.06665"
   xmlns="http://www.w3.org/2000/svg"
   xmlns:svg="http://www.w3.org/2000/svg">
  <defs
     id="defs1">
    <clipPath
       clipPathUnits="userSpaceOnUse"
       id="clipPath496">
      <path
         d="m 188,508.9 h 236.4 v 51.8 H 188 Z"
         clip-rule="evenodd"
         id="path496" />
    </clipPath>
    <clipPath
       clipPathUnits="userSpaceOnUse"
       id="clipPath497">
      <path
         d="m 188,508.9 h 236.4 v 51.8 H 188 Z"
         transform="matrix(1,0,0,-0.99858999,-216.80003,549.22449)"
         clip-rule="evenodd"
         id="path497" />
    </clipPath>
    <clipPath
       clipPathUnits="userSpaceOnUse"
       id="clipPath499">
      <path
         d="m 188,508.9 h 236.4 v 51.8 H 188 Z"
         clip-rule="evenodd"
         id="path499" />
    </clipPath>
    <clipPath
       clipPathUnits="userSpaceOnUse"
       id="clipPath500">
      <path
         d="m 188,508.9 h 236.4 v 51.8 H 188 Z"
         transform="matrix(1,0,0,-0.99858999,-228.80003,533.64649)"
         clip-rule="evenodd"
         id="path500" />
    </clipPath>
    <clipPath
       clipPathUnits="userSpaceOnUse"
       id="clipPath502">
      <path
         d="m 188,508.9 h 236.4 v 51.8 H 188 Z"
         clip-rule="evenodd"
         id="path502" />
    </clipPath>
    <clipPath
       clipPathUnits="userSpaceOnUse"
       id="clipPath503">
      <path
         d="m 188,508.9 h 236.4 v 51.8 H 188 Z"
         transform="matrix(1,0,0,-0.99858999,-278.60003,533.64649)"
         clip-rule="evenodd"
         id="path503" />
    </clipPath>
    <clipPath
       clipPathUnits="userSpaceOnUse"
       id="clipPath505">
      <path
         d="m 188,508.9 h 236.4 v 51.8 H 188 Z"
         clip-rule="evenodd"
         id="path505" />
    </clipPath>
    <clipPath
       clipPathUnits="userSpaceOnUse"
       id="clipPath506">
      <path
         d="m 188,508.9 h 236.4 v 51.8 H 188 Z"
         transform="matrix(1,0,0,-0.99858999,-230.00003,516.27102)"
         clip-rule="evenodd"
         id="path506" />
    </clipPath>
    <clipPath
       clipPathUnits="userSpaceOnUse"
       id="clipPath508">
      <path
         d="m 188,508.9 h 236.4 v 51.8 H 188 Z"
         clip-rule="evenodd"
         id="path508" />
    </clipPath>
    <clipPath
       clipPathUnits="userSpaceOnUse"
       id="clipPath509">
      <path
         d="m 188,508.9 h 236.4 v 51.8 H 188 Z"
         transform="matrix(1,0,0,-0.99858999,-258.80003,516.27102)"
         clip-rule="evenodd"
         id="path509" />
    </clipPath>
    <clipPath
       clipPathUnits="userSpaceOnUse"
       id="clipPath511">
      <path
         d="m 188,508.9 h 236.4 v 51.8 H 188 Z"
         clip-rule="evenodd"
         id="path511" />
    </clipPath>
    <clipPath
       clipPathUnits="userSpaceOnUse"
       id="clipPath512">
      <path
         d="m 188,508.9 h 236.4 v 51.8 H 188 Z"
         transform="matrix(1,0,0,-0.99858999,-288.80003,516.27102)"
         clip-rule="evenodd"
         id="path512" />
    </clipPath>
    <clipPath
       clipPathUnits="userSpaceOnUse"
       id="clipPath514">
      <path
         d="m 188,508.9 h 236.4 v 51.8 H 188 Z"
         clip-rule="evenodd"
         id="path514" />
    </clipPath>
    <clipPath
       clipPathUnits="userSpaceOnUse"
       id="clipPath516">
      <path
         d="m 188,508.9 h 236.4 v 51.8 H 188 Z"
         clip-rule="evenodd"
         id="path516" />
    </clipPath>
    <clipPath
       clipPathUnits="userSpaceOnUse"
       id="clipPath518">
      <path
         d="m 188,508.9 h 236.4 v 51.8 H 188 Z"
         clip-rule="evenodd"
         id="path518" />
    </clipPath>
    <clipPath
       clipPathUnits="userSpaceOnUse"
       id="clipPath519">
      <path
         d="m 188,508.9 h 236.4 v 51.8 H 188 Z"
         transform="matrix(1,0,0,-0.99858999,-332.00003,549.22449)"
         clip-rule="evenodd"
         id="path519" />
    </clipPath>
    <clipPath
       clipPathUnits="userSpaceOnUse"
       id="clipPath521">
      <path
         d="m 188,508.9 h 236.4 v 51.8 H 188 Z"
         clip-rule="evenodd"
         id="path521" />
    </clipPath>
    <clipPath
       clipPathUnits="userSpaceOnUse"
       id="clipPath522">
      <path
         d="m 188,508.9 h 236.4 v 51.8 H 188 Z"
         transform="matrix(1,0,0,-0.99858999,-343.89998,533.64649)"
         clip-rule="evenodd"
         id="path522" />
    </clipPath>
    <clipPath
       clipPathUnits="userSpaceOnUse"
       id="clipPath524">
      <path
         d="m 188,508.9 h 236.4 v 51.8 H 188 Z"
         clip-rule="evenodd"
         id="path524" />
    </clipPath>
    <clipPath
       clipPathUnits="userSpaceOnUse"
       id="clipPath525">
      <path
         d="m 188,508.9 h 236.4 v 51.8 H 188 Z"
         transform="matrix(1,0,0,-0.99858999,-393.69998,533.64649)"
         clip-rule="evenodd"
         id="path525" />
    </clipPath>
    <clipPath
       clipPathUnits="userSpaceOnUse"
       id="clipPath527">
      <path
         d="m 188,508.9 h 236.4 v 51.8 H 188 Z"
         clip-rule="evenodd"
         id="path527" />
    </clipPath>
    <clipPath
       clipPathUnits="userSpaceOnUse"
       id="clipPath528">
      <path
         d="m 188,508.9 h 236.4 v 51.8 H 188 Z"
         transform="matrix(1,0,0,-0.99858999,-345.09998,516.27102)"
         clip-rule="evenodd"
         id="path528" />
    </clipPath>
    <clipPath
       clipPathUnits="userSpaceOnUse"
       id="clipPath530">
      <path
         d="m 188,508.9 h 236.4 v 51.8 H 188 Z"
         clip-rule="evenodd"
         id="path530" />
    </clipPath>
    <clipPath
       clipPathUnits="userSpaceOnUse"
       id="clipPath531">
      <path
         d="m 188,508.9 h 236.4 v 51.8 H 188 Z"
         transform="matrix(1,0,0,-0.99858999,-373.89998,516.27102)"
         clip-rule="evenodd"
         id="path531" />
    </clipPath>
    <clipPath
       clipPathUnits="userSpaceOnUse"
       id="clipPath533">
      <path
         d="m 188,508.9 h 236.4 v 51.8 H 188 Z"
         clip-rule="evenodd"
         id="path533" />
    </clipPath>
    <clipPath
       clipPathUnits="userSpaceOnUse"
       id="clipPath534">
      <path
         d="m 188,508.9 h 236.4 v 51.8 H 188 Z"
         transform="matrix(1,0,0,-0.99858999,-403.89999,516.27102)"
         clip-rule="evenodd"
         id="path534" />
    </clipPath>
    <clipPath
       clipPathUnits="userSpaceOnUse"
       id="clipPath536">
      <path
         d="m 188,508.9 h 236.4 v 51.8 H 188 Z"
         clip-rule="evenodd"
         id="path536" />
    </clipPath>
    <clipPath
       clipPathUnits="userSpaceOnUse"
       id="clipPath538">
      <path
         d="m 188,508.9 h 236.4 v 51.8 H 188 Z"
         clip-rule="evenodd"
         id="path538" />
    </clipPath>
  </defs>
  <g
     id="g437"
     transform="translate(-1922.6665,-308.40002)">
    <path
       id="path495"
       d="m 260,508.8 h -49 v 51.9 h 97.9 v -51.9 z"
       style="fill:#ffffff;fill-opacity:1;fill-rule:evenodd;stroke:#000000;stroke-width:1;stroke-linecap:butt;stroke-linejoin:round;stroke-miterlimit:10;stroke-dasharray:none;stroke-opacity:1"
       transform="matrix(1.3333333,0,0,-1.3333333,1672,1056)"
       clip-path="url(#clipPath496)" />
    <text
       id="text496"
       xml:space="preserve"
       transform="matrix(1.3333333,0,0,1.335216,1961.0667,322.66667)"
       clip-path="url(#clipPath497)"><tspan
         style="font-variant:normal;font-weight:normal;font-size:7.18985px;font-family:Arial;writing-mode:lr-tb;fill:#000000;fill-opacity:1;fill-rule:nonzero;stroke:none"
         x="0 4.8028183 6.4061546 10.40371 14.106482"
         y="0"
         id="tspan496">Block</tspan></text>
    <path
       id="path498"
       d="m 245.6,531.9 h -23.1 v 11.5 h 46.1 v -11.5 z"
       style="fill:#ffffff;fill-opacity:1;fill-rule:evenodd;stroke:#000000;stroke-width:1;stroke-linecap:butt;stroke-linejoin:round;stroke-miterlimit:10;stroke-dasharray:none;stroke-opacity:1"
       transform="matrix(1.3333333,0,0,-1.3333333,1672,1056)"
       clip-path="url(#clipPath499)" />
    <text
       id="text499"
       xml:space="preserve"
       transform="matrix(1.3333333,0,0,1.335216,1977.0667,343.46667)"
       clip-path="url(#clipPath500)"><tspan
         style="font-variant:normal;font-weight:normal;font-size:7.18985px;font-family:Arial;writing-mode:lr-tb;fill:#000000;fill-opacity:1;fill-rule:nonzero;stroke:none"
         x="0 4.8028183 7.2042279 11.201783 14.803897 16.802675 22.000935 25.998491 29.600605"
         y="0"
         id="tspan499">Prev Hash</tspan></text>
    <path
       id="path501"
       d="m 288.8,531.9 h -14.4 v 11.5 h 28.8 v -11.5 z"
       style="fill:#ffffff;fill-opacity:1;fill-rule:evenodd;stroke:#000000;stroke-width:1;stroke-linecap:butt;stroke-linejoin:round;stroke-miterlimit:10;stroke-dasharray:none;stroke-opacity:1"
       transform="matrix(1.3333333,0,0,-1.3333333,1672,1056)"
       clip-path="url(#clipPath502)" />
    <text
       id="text502"
       xml:space="preserve"
       transform="matrix(1.3333333,0,0,1.335216,2043.4667,343.46667)"
       clip-path="url(#clipPath503)"><tspan
         style="font-variant:normal;font-weight:normal;font-size:7.18985px;font-family:Arial;writing-mode:lr-tb;fill:#000000;fill-opacity:1;fill-rule:nonzero;stroke:none"
         x="0 5.1982603 9.195816 13.193371 16.896143"
         y="0"
         id="tspan502">Nonce</tspan></text>
    <path
       id="path504"
       d="m 234.1,514.6 h -11.6 v 11.5 h 23.1 v -11.5 z"
       style="fill:#ffffff;fill-opacity:1;fill-rule:evenodd;stroke:#000000;stroke-width:1;stroke-linecap:butt;stroke-linejoin:round;stroke-miterlimit:10;stroke-dasharray:none;stroke-opacity:1"
       transform="matrix(1.3333333,0,0,-1.3333333,1672,1056)"
       clip-path="url(#clipPath505)" />
    <text
       id="text505"
       xml:space="preserve"
       transform="matrix(1.3333333,0,0,1.335216,1978.6667,366.66667)"
       clip-path="url(#clipPath506)"><tspan
         style="font-variant:normal;font-weight:normal;font-size:7.18985px;font-family:Arial;writing-mode:lr-tb;fill:#000000;fill-opacity:1;fill-rule:nonzero;stroke:none"
         x="0 4.2995291"
         y="0"
         id="tspan505">Tx</tspan></text>
    <path
       id="path507"
       d="m 262.9,514.6 h -11.6 v 11.5 h 23.1 v -11.5 z"
       style="fill:#ffffff;fill-opacity:1;fill-rule:evenodd;stroke:#000000;stroke-width:1;stroke-linecap:butt;stroke-linejoin:round;stroke-miterlimit:10;stroke-dasharray:none;stroke-opacity:1"
       transform="matrix(1.3333333,0,0,-1.3333333,1672,1056)"
       clip-path="url(#clipPath508)" />
    <text
       id="text508"
       xml:space="preserve"
       transform="matrix(1.3333333,0,0,1.335216,2017.0667,366.66667)"
       clip-path="url(#clipPath509)"><tspan
         style="font-variant:normal;font-weight:normal;font-size:7.18985px;font-family:Arial;writing-mode:lr-tb;fill:#000000;fill-opacity:1;fill-rule:nonzero;stroke:none"
         x="0 4.2995291"
         y="0"
         id="tspan508">Tx</tspan></text>
    <path
       id="path510"
       d="m 291.6,514.6 h -11.5 v 11.5 h 23.1 v -11.5 z"
       style="fill:#ffffff;fill-opacity:1;fill-rule:evenodd;stroke:#000000;stroke-width:1;stroke-linecap:butt;stroke-linejoin:round;stroke-miterlimit:10;stroke-dasharray:none;stroke-opacity:1"
       transform="matrix(1.3333333,0,0,-1.3333333,1672,1056)"
       clip-path="url(#clipPath511)" />
    <text
       id="text511"
       xml:space="preserve"
       transform="matrix(1.3333333,0,0,1.335216,2057.0667,366.66667)"
       clip-path="url(#clipPath512)"><tspan
         style="font-variant:normal;font-weight:normal;font-size:7.18985px;font-family:Arial;writing-mode:lr-tb;fill:#000000;fill-opacity:1;fill-rule:nonzero;stroke:none"
         x="0 1.9987777 3.9975555"
         y="0"
         id="tspan511">...</tspan></text>
    <path
       id="path513"
       d="m 222.5,537.6 -6.8,-2.3 v 4.6 z"
       style="fill:#000000;fill-opacity:1;fill-rule:evenodd;stroke:none"
       transform="matrix(1.3333333,0,0,-1.3333333,1672,1056)"
       clip-path="url(#clipPath514)" />
    <path
       id="path515"
       d="m 188,537.6 h 29"
       style="fill:none;stroke:#000000;stroke-width:0.1;stroke-linecap:butt;stroke-linejoin:miter;stroke-miterlimit:10;stroke-dasharray:none;stroke-opacity:1"
       transform="matrix(1.3333333,0,0,-1.3333333,1672,1056)"
       clip-path="url(#clipPath516)" />
    <path
       id="path517"
       d="m 375.1,508.8 h -48.9 v 51.9 h 97.9 v -51.9 z"
       style="fill:#ffffff;fill-opacity:1;fill-rule:evenodd;stroke:#000000;stroke-width:1;stroke-linecap:butt;stroke-linejoin:round;stroke-miterlimit:10;stroke-dasharray:none;stroke-opacity:1"
       transform="matrix(1.3333333,0,0,-1.3333333,1672,1056)"
       clip-path="url(#clipPath518)" />
    <text
       id="text518"
       xml:space="preserve"
       transform="matrix(1.3333333,0,0,1.335216,2114.6667,322.66667)"
       clip-path="url(#clipPath519)"><tspan
         style="font-variant:normal;font-weight:normal;font-size:7.18985px;font-family:Arial;writing-mode:lr-tb;fill:#000000;fill-opacity:1;fill-rule:nonzero;stroke:none"
         x="0 4.8028183 6.4061546 10.40371 14.106482"
         y="0"
         id="tspan518">Block</tspan></text>
    <path
       id="path520"
       d="m 360.7,531.9 h -23 v 11.5 h 46.1 v -11.5 z"
       style="fill:#ffffff;fill-opacity:1;fill-rule:evenodd;stroke:#000000;stroke-width:1;stroke-linecap:butt;stroke-linejoin:round;stroke-miterlimit:10;stroke-dasharray:none;stroke-opacity:1"
       transform="matrix(1.3333333,0,0,-1.3333333,1672,1056)"
       clip-path="url(#clipPath521)" />
    <text
       id="text521"
       xml:space="preserve"
       transform="matrix(1.3333333,0,0,1.335216,2130.5333,343.46667)"
       clip-path="url(#clipPath522)"><tspan
         style="font-variant:normal;font-weight:normal;font-size:7.18985px;font-family:Arial;writing-mode:lr-tb;fill:#000000;fill-opacity:1;fill-rule:nonzero;stroke:none"
         x="0 4.8028183 7.2042279 11.201783 14.703239 16.802675 21.900276 25.998491 29.600605"
         y="0"
         id="tspan521">Prev Hash</tspan></text>
    <path
       id="path523"
       d="m 403.9,531.9 h -14.4 v 11.5 h 28.8 v -11.5 z"
       style="fill:#ffffff;fill-opacity:1;fill-rule:evenodd;stroke:#000000;stroke-width:1;stroke-linecap:butt;stroke-linejoin:round;stroke-miterlimit:10;stroke-dasharray:none;stroke-opacity:1"
       transform="matrix(1.3333333,0,0,-1.3333333,1672,1056)"
       clip-path="url(#clipPath524)" />
    <text
       id="text524"
       xml:space="preserve"
       transform="matrix(1.3333333,0,0,1.335216,2196.9333,343.46667)"
       clip-path="url(#clipPath525)"><tspan
         style="font-variant:normal;font-weight:normal;font-size:7.18985px;font-family:Arial;writing-mode:lr-tb;fill:#000000;fill-opacity:1;fill-rule:nonzero;stroke:none"
         x="0 5.1982603 9.195816 13.294029 16.896143"
         y="0"
         id="tspan524">Nonce</tspan></text>
    <path
       id="path526"
       d="m 349.2,514.6 h -11.5 v 11.5 h 23 v -11.5 z"
       style="fill:#ffffff;fill-opacity:1;fill-rule:evenodd;stroke:#000000;stroke-width:1;stroke-linecap:butt;stroke-linejoin:round;stroke-miterlimit:10;stroke-dasharray:none;stroke-opacity:1"
       transform="matrix(1.3333333,0,0,-1.3333333,1672,1056)"
       clip-path="url(#clipPath527)" />
    <text
       id="text527"
       xml:space="preserve"
       transform="matrix(1.3333333,0,0,1.335216,2132.1333,366.66667)"
       clip-path="url(#clipPath528)"><tspan
         style="font-variant:normal;font-weight:normal;font-size:7.18985px;font-family:Arial;writing-mode:lr-tb;fill:#000000;fill-opacity:1;fill-rule:nonzero;stroke:none"
         x="0 4.2995291"
         y="0"
         id="tspan527">Tx</tspan></text>
    <path
       id="path529"
       d="m 378,514.6 h -11.5 v 11.5 h 23 v -11.5 z"
       style="fill:#ffffff;fill-opacity:1;fill-rule:evenodd;stroke:#000000;stroke-width:1;stroke-linecap:butt;stroke-linejoin:round;stroke-miterlimit:10;stroke-dasharray:none;stroke-opacity:1"
       transform="matrix(1.3333333,0,0,-1.3333333,1672,1056)"
       clip-path="url(#clipPath530)" />
    <text
       id="text530"
       xml:space="preserve"
       transform="matrix(1.3333333,0,0,1.335216,2170.5333,366.66667)"
       clip-path="url(#clipPath531)"><tspan
         style="font-variant:normal;font-weight:normal;font-size:7.18985px;font-family:Arial;writing-mode:lr-tb;fill:#000000;fill-opacity:1;fill-rule:nonzero;stroke:none"
         x="0 4.2995291"
         y="0"
         id="tspan530">Tx</tspan></text>
    <path
       id="path532"
       d="m 406.8,514.6 h -11.5 v 11.5 h 23 v -11.5 z"
       style="fill:#ffffff;fill-opacity:1;fill-rule:evenodd;stroke:#000000;stroke-width:1;stroke-linecap:butt;stroke-linejoin:round;stroke-miterlimit:10;stroke-dasharray:none;stroke-opacity:1"
       transform="matrix(1.3333333,0,0,-1.3333333,1672,1056)"
       clip-path="url(#clipPath533)" />
    <text
       id="text533"
       xml:space="preserve"
       transform="matrix(1.3333333,0,0,1.335216,2210.5333,366.66667)"
       clip-path="url(#clipPath534)"><tspan
         style="font-variant:normal;font-weight:normal;font-size:7.18985px;font-family:Arial;writing-mode:lr-tb;fill:#000000;fill-opacity:1;fill-rule:nonzero;stroke:none"
         x="0 2.0994356 4.0982132"
         y="0"
         id="tspan533">...</tspan></text>
    <path
       id="path535"
       d="m 337.7,537.6 -6.9,-2.3 v 4.6 z"
       style="fill:#000000;fill-opacity:1;fill-rule:evenodd;stroke:none"
       transform="matrix(1.3333333,0,0,-1.3333333,1672,1056)"
       clip-path="url(#clipPath536)" />
    <path
       id="path537"
       d="m 308.9,537.6 h 23.3"
       style="fill:none;stroke:#000000;stroke-width:0.1;stroke-linecap:butt;stroke-linejoin:miter;stroke-miterlimit:10;stroke-dasharray:none;stroke-opacity:1"
       transform="matrix(1.3333333,0,0,-1.3333333,1672,1056)"
       clip-path="url(#clipPath538)" />
  </g>
</svg>
