<?xml version="1.0" encoding="UTF-8" standalone="no"?>
<!-- Created with Inkscape (http://www.inkscape.org/) -->

<svg
   version="1.1"
   id="svg1"
   width="492.5332"
   height="206.89201"
   viewBox="0 0 492.5332 206.89201"
   xmlns="http://www.w3.org/2000/svg"
   xmlns:svg="http://www.w3.org/2000/svg">
  <defs
     id="defs1">
    <clipPath
       clipPathUnits="userSpaceOnUse"
       id="clipPath796">
      <path
         d="M 118.5,448 H 493.9 V 607.3 H 118.5 Z"
         clip-rule="evenodd"
         id="path796" />
    </clipPath>
    <clipPath
       clipPathUnits="userSpaceOnUse"
       id="clipPath797">
      <path
         d="M 118.5,448 H 493.9 V 607.3 H 118.5 Z"
         transform="matrix(1,0,0,-1.0002,-254.10001,513.50269)"
         clip-rule="evenodd"
         id="path797" />
    </clipPath>
    <clipPath
       clipPathUnits="userSpaceOnUse"
       id="clipPath799">
      <path
         d="M 118.5,448 H 493.9 V 607.3 H 118.5 Z"
         clip-rule="evenodd"
         id="path799" />
    </clipPath>
    <clipPath
       clipPathUnits="userSpaceOnUse"
       id="clipPath800">
      <path
         d="M 118.5,448 H 493.9 V 607.3 H 118.5 Z"
         transform="matrix(1,0,0,-1.0002,-304.40003,479.09581)"
         clip-rule="evenodd"
         id="path800" />
    </clipPath>
    <clipPath
       clipPathUnits="userSpaceOnUse"
       id="clipPath802">
      <path
         d="M 118.5,448 H 493.9 V 607.3 H 118.5 Z"
         clip-rule="evenodd"
         id="path802" />
    </clipPath>
    <clipPath
       clipPathUnits="userSpaceOnUse"
       id="clipPath803">
      <path
         d="M 118.5,448 H 493.9 V 607.3 H 118.5 Z"
         transform="matrix(1,0,0,-1.0002,-344.10001,479.09581)"
         clip-rule="evenodd"
         id="path803" />
    </clipPath>
    <clipPath
       clipPathUnits="userSpaceOnUse"
       id="clipPath805">
      <path
         d="M 118.5,448 H 493.9 V 607.3 H 118.5 Z"
         clip-rule="evenodd"
         id="path805" />
    </clipPath>
    <clipPath
       clipPathUnits="userSpaceOnUse"
       id="clipPath806">
      <path
         d="M 118.5,448 H 493.9 V 607.3 H 118.5 Z"
         transform="matrix(1,0,0,-1.0002,-322.20001,513.50269)"
         clip-rule="evenodd"
         id="path806" />
    </clipPath>
    <clipPath
       clipPathUnits="userSpaceOnUse"
       id="clipPath808">
      <path
         d="M 118.5,448 H 493.9 V 607.3 H 118.5 Z"
         clip-rule="evenodd"
         id="path808" />
    </clipPath>
    <clipPath
       clipPathUnits="userSpaceOnUse"
       id="clipPath810">
      <path
         d="M 118.5,448 H 493.9 V 607.3 H 118.5 Z"
         clip-rule="evenodd"
         id="path810" />
    </clipPath>
    <clipPath
       clipPathUnits="userSpaceOnUse"
       id="clipPath812">
      <path
         d="M 118.5,448 H 493.9 V 607.3 H 118.5 Z"
         clip-rule="evenodd"
         id="path812" />
    </clipPath>
    <clipPath
       clipPathUnits="userSpaceOnUse"
       id="clipPath814">
      <path
         d="M 118.5,448 H 493.9 V 607.3 H 118.5 Z"
         clip-rule="evenodd"
         id="path814" />
    </clipPath>
    <clipPath
       clipPathUnits="userSpaceOnUse"
       id="clipPath816">
      <path
         d="M 118.5,448 H 493.9 V 607.3 H 118.5 Z"
         clip-rule="evenodd"
         id="path816" />
    </clipPath>
    <clipPath
       clipPathUnits="userSpaceOnUse"
       id="clipPath817">
      <path
         d="M 118.5,448 H 493.9 V 607.3 H 118.5 Z"
         transform="matrix(1,0,0,-1.0002,-260.60003,579.71593)"
         clip-rule="evenodd"
         id="path817" />
    </clipPath>
    <clipPath
       clipPathUnits="userSpaceOnUse"
       id="clipPath819">
      <path
         d="M 118.5,448 H 493.9 V 607.3 H 118.5 Z"
         clip-rule="evenodd"
         id="path819" />
    </clipPath>
    <clipPath
       clipPathUnits="userSpaceOnUse"
       id="clipPath820">
      <path
         d="M 118.5,448 H 493.9 V 607.3 H 118.5 Z"
         transform="matrix(1,0,0,-1.0002,-280.10003,547.80955)"
         clip-rule="evenodd"
         id="path820" />
    </clipPath>
    <clipPath
       clipPathUnits="userSpaceOnUse"
       id="clipPath822">
      <path
         d="M 118.5,448 H 493.9 V 607.3 H 118.5 Z"
         clip-rule="evenodd"
         id="path822" />
    </clipPath>
    <clipPath
       clipPathUnits="userSpaceOnUse"
       id="clipPath824">
      <path
         d="M 118.5,448 H 493.9 V 607.3 H 118.5 Z"
         clip-rule="evenodd"
         id="path824" />
    </clipPath>
    <clipPath
       clipPathUnits="userSpaceOnUse"
       id="clipPath826">
      <path
         d="M 118.5,448 H 493.9 V 607.3 H 118.5 Z"
         clip-rule="evenodd"
         id="path826" />
    </clipPath>
    <clipPath
       clipPathUnits="userSpaceOnUse"
       id="clipPath828">
      <path
         d="M 118.5,448 H 493.9 V 607.3 H 118.5 Z"
         clip-rule="evenodd"
         id="path828" />
    </clipPath>
    <clipPath
       clipPathUnits="userSpaceOnUse"
       id="clipPath830">
      <path
         d="M 118.5,448 H 493.9 V 607.3 H 118.5 Z"
         clip-rule="evenodd"
         id="path830" />
    </clipPath>
    <clipPath
       clipPathUnits="userSpaceOnUse"
       id="clipPath831">
      <path
         d="M 118.5,448 H 493.9 V 607.3 H 118.5 Z"
         transform="matrix(1,0,0,-1.0002,-272.40001,564.91297)"
         clip-rule="evenodd"
         id="path831" />
    </clipPath>
    <clipPath
       clipPathUnits="userSpaceOnUse"
       id="clipPath833">
      <path
         d="M 118.5,448 H 493.9 V 607.3 H 118.5 Z"
         clip-rule="evenodd"
         id="path833" />
    </clipPath>
    <clipPath
       clipPathUnits="userSpaceOnUse"
       id="clipPath834">
      <path
         d="M 118.5,448 H 493.9 V 607.3 H 118.5 Z"
         transform="matrix(1,0,0,-1.0002,-323.90003,564.91297)"
         clip-rule="evenodd"
         id="path834" />
    </clipPath>
    <clipPath
       clipPathUnits="userSpaceOnUse"
       id="clipPath836">
      <path
         d="M 118.5,448 H 493.9 V 607.3 H 118.5 Z"
         clip-rule="evenodd"
         id="path836" />
    </clipPath>
    <clipPath
       clipPathUnits="userSpaceOnUse"
       id="clipPath837">
      <path
         d="M 118.5,448 H 493.9 V 607.3 H 118.5 Z"
         transform="matrix(1,0,0,-1.0002,-141,579.71593)"
         clip-rule="evenodd"
         id="path837" />
    </clipPath>
    <clipPath
       clipPathUnits="userSpaceOnUse"
       id="clipPath839">
      <path
         d="M 118.5,448 H 493.9 V 607.3 H 118.5 Z"
         clip-rule="evenodd"
         id="path839" />
    </clipPath>
    <clipPath
       clipPathUnits="userSpaceOnUse"
       id="clipPath840">
      <path
         d="M 118.5,448 H 493.9 V 607.3 H 118.5 Z"
         transform="matrix(1,0,0,-1.0002,-159.9,547.80955)"
         clip-rule="evenodd"
         id="path840" />
    </clipPath>
    <clipPath
       clipPathUnits="userSpaceOnUse"
       id="clipPath842">
      <path
         d="M 118.5,448 H 493.9 V 607.3 H 118.5 Z"
         clip-rule="evenodd"
         id="path842" />
    </clipPath>
    <clipPath
       clipPathUnits="userSpaceOnUse"
       id="clipPath843">
      <path
         d="M 118.5,448 H 493.9 V 607.3 H 118.5 Z"
         transform="matrix(1,0,0,-1.0002,-152.19998,564.91297)"
         clip-rule="evenodd"
         id="path843" />
    </clipPath>
    <clipPath
       clipPathUnits="userSpaceOnUse"
       id="clipPath845">
      <path
         d="M 118.5,448 H 493.9 V 607.3 H 118.5 Z"
         clip-rule="evenodd"
         id="path845" />
    </clipPath>
    <clipPath
       clipPathUnits="userSpaceOnUse"
       id="clipPath846">
      <path
         d="M 118.5,448 H 493.9 V 607.3 H 118.5 Z"
         transform="matrix(1,0,0,-1.0002,-203.70001,564.91297)"
         clip-rule="evenodd"
         id="path846" />
    </clipPath>
    <clipPath
       clipPathUnits="userSpaceOnUse"
       id="clipPath848">
      <path
         d="M 118.5,448 H 493.9 V 607.3 H 118.5 Z"
         clip-rule="evenodd"
         id="path848" />
    </clipPath>
    <clipPath
       clipPathUnits="userSpaceOnUse"
       id="clipPath849">
      <path
         d="M 118.5,448 H 493.9 V 607.3 H 118.5 Z"
         transform="matrix(1,0,0,-1.0002,-379.59998,579.71593)"
         clip-rule="evenodd"
         id="path849" />
    </clipPath>
    <clipPath
       clipPathUnits="userSpaceOnUse"
       id="clipPath851">
      <path
         d="M 118.5,448 H 493.9 V 607.3 H 118.5 Z"
         clip-rule="evenodd"
         id="path851" />
    </clipPath>
    <clipPath
       clipPathUnits="userSpaceOnUse"
       id="clipPath852">
      <path
         d="M 118.5,448 H 493.9 V 607.3 H 118.5 Z"
         transform="matrix(1,0,0,-1.0002,-399.69998,547.80955)"
         clip-rule="evenodd"
         id="path852" />
    </clipPath>
    <clipPath
       clipPathUnits="userSpaceOnUse"
       id="clipPath854">
      <path
         d="M 118.5,448 H 493.9 V 607.3 H 118.5 Z"
         clip-rule="evenodd"
         id="path854" />
    </clipPath>
    <clipPath
       clipPathUnits="userSpaceOnUse"
       id="clipPath855">
      <path
         d="M 118.5,448 H 493.9 V 607.3 H 118.5 Z"
         transform="matrix(1,0,0,-1.0002,-392.00003,564.91297)"
         clip-rule="evenodd"
         id="path855" />
    </clipPath>
    <clipPath
       clipPathUnits="userSpaceOnUse"
       id="clipPath857">
      <path
         d="M 118.5,448 H 493.9 V 607.3 H 118.5 Z"
         clip-rule="evenodd"
         id="path857" />
    </clipPath>
    <clipPath
       clipPathUnits="userSpaceOnUse"
       id="clipPath858">
      <path
         d="M 118.5,448 H 493.9 V 607.3 H 118.5 Z"
         transform="matrix(1,0,0,-1.0002,-443.49999,564.91297)"
         clip-rule="evenodd"
         id="path858" />
    </clipPath>
    <clipPath
       clipPathUnits="userSpaceOnUse"
       id="clipPath860">
      <path
         d="M 118.5,448 H 493.9 V 607.3 H 118.5 Z"
         clip-rule="evenodd"
         id="path860" />
    </clipPath>
    <clipPath
       clipPathUnits="userSpaceOnUse"
       id="clipPath862">
      <path
         d="M 118.5,448 H 493.9 V 607.3 H 118.5 Z"
         clip-rule="evenodd"
         id="path862" />
    </clipPath>
    <clipPath
       clipPathUnits="userSpaceOnUse"
       id="clipPath864">
      <path
         d="M 118.5,448 H 493.9 V 607.3 H 118.5 Z"
         clip-rule="evenodd"
         id="path864" />
    </clipPath>
    <clipPath
       clipPathUnits="userSpaceOnUse"
       id="clipPath866">
      <path
         d="M 118.5,448 H 493.9 V 607.3 H 118.5 Z"
         clip-rule="evenodd"
         id="path866" />
    </clipPath>
    <clipPath
       clipPathUnits="userSpaceOnUse"
       id="clipPath868">
      <path
         d="M 118.5,448 H 493.9 V 607.3 H 118.5 Z"
         clip-rule="evenodd"
         id="path868" />
    </clipPath>
    <clipPath
       clipPathUnits="userSpaceOnUse"
       id="clipPath870">
      <path
         d="M 118.5,448 H 493.9 V 607.3 H 118.5 Z"
         clip-rule="evenodd"
         id="path870" />
    </clipPath>
    <clipPath
       clipPathUnits="userSpaceOnUse"
       id="clipPath872">
      <path
         d="M 118.5,448 H 493.9 V 607.3 H 118.5 Z"
         clip-rule="evenodd"
         id="path872" />
    </clipPath>
    <clipPath
       clipPathUnits="userSpaceOnUse"
       id="clipPath874">
      <path
         d="M 118.5,448 H 493.9 V 607.3 H 118.5 Z"
         clip-rule="evenodd"
         id="path874" />
    </clipPath>
    <clipPath
       clipPathUnits="userSpaceOnUse"
       id="clipPath875">
      <path
         d="M 118.5,448 H 493.9 V 607.3 H 118.5 Z"
         transform="matrix(1,0,0,-1.0002,-362.40001,498.09961)"
         clip-rule="evenodd"
         id="path875" />
    </clipPath>
    <clipPath
       clipPathUnits="userSpaceOnUse"
       id="clipPath876">
      <path
         d="M 118.5,448 H 493.9 V 607.3 H 118.5 Z"
         transform="matrix(1,0,0,-1.0002,-123.80003,598.11961)"
         clip-rule="evenodd"
         id="path876" />
    </clipPath>
    <clipPath
       clipPathUnits="userSpaceOnUse"
       id="clipPath878">
      <path
         d="M 118.5,448 H 493.9 V 607.3 H 118.5 Z"
         clip-rule="evenodd"
         id="path878" />
    </clipPath>
    <clipPath
       clipPathUnits="userSpaceOnUse"
       id="clipPath879">
      <path
         d="M 118.5,448 H 493.9 V 607.3 H 118.5 Z"
         transform="matrix(1,0,0,-1.0002,-351.20003,450.69013)"
         clip-rule="evenodd"
         id="path879" />
    </clipPath>
    <clipPath
       clipPathUnits="userSpaceOnUse"
       id="clipPath881">
      <path
         d="M 118.5,448 H 493.9 V 607.3 H 118.5 Z"
         clip-rule="evenodd"
         id="path881" />
    </clipPath>
    <clipPath
       clipPathUnits="userSpaceOnUse"
       id="clipPath883">
      <path
         d="M 118.5,448 H 493.9 V 607.3 H 118.5 Z"
         clip-rule="evenodd"
         id="path883" />
    </clipPath>
  </defs>
  <g
     id="g719"
     transform="translate(-3509.6001,-251.77467)">
    <path
       id="path795"
       d="m 266.3,510.7 h -17.1 v 11.4 h 34.1 v -11.4 z"
       style="fill:#ffffff;fill-opacity:1;fill-rule:evenodd;stroke:#000000;stroke-width:1;stroke-linecap:butt;stroke-linejoin:round;stroke-miterlimit:10;stroke-dasharray:none;stroke-opacity:1"
       transform="matrix(1.3333333,0,0,-1.3333333,3344,1056)"
       clip-path="url(#clipPath796)" />
    <text
       id="text796"
       xml:space="preserve"
       transform="matrix(1.3333333,0,0,1.3330667,3682.8,371.46667)"
       clip-path="url(#clipPath797)"><tspan
         style="font-variant:normal;font-weight:normal;font-size:7.10142px;font-family:Arial;writing-mode:lr-tb;fill:#000000;fill-opacity:1;fill-rule:nonzero;stroke:none"
         x="0 5.0988197 9.0969191 12.697339 16.596018 20.594118"
         y="0"
         id="tspan796">Hash01</tspan></text>
    <path
       id="path798"
       d="M 314.6,476.6 H 300.4 V 488 h 28.4 v -11.4 z"
       style="fill:#ffffff;fill-opacity:1;fill-rule:evenodd;stroke:#000000;stroke-width:1;stroke-linecap:butt;stroke-linejoin:round;stroke-miterlimit:10;stroke-dasharray:none;stroke-opacity:1"
       transform="matrix(1.3333333,0,0,-1.3333333,3344,1056)"
       clip-path="url(#clipPath799)" />
    <text
       id="text799"
       xml:space="preserve"
       transform="matrix(1.3333333,0,0,1.3330667,3749.8667,417.33333)"
       clip-path="url(#clipPath800)"><tspan
         style="font-variant:normal;font-weight:normal;font-size:7.10142px;font-family:Arial;writing-mode:lr-tb;fill:#000000;fill-opacity:1;fill-rule:nonzero;stroke:none"
         x="0 5.0988197 9.0969191 12.697339 16.695438"
         y="0"
         id="tspan799">Hash2</tspan></text>
    <path
       id="path801"
       d="M 354.4,476.6 H 340.1 V 488 h 28.5 v -11.4 z"
       style="fill:#ffffff;fill-opacity:1;fill-rule:evenodd;stroke:#4c4c4c;stroke-width:1;stroke-linecap:butt;stroke-linejoin:round;stroke-miterlimit:10;stroke-dasharray:1.1424, 1.1424, 1.1424, 1.1424;stroke-dashoffset:0;stroke-opacity:1"
       transform="matrix(1.3333333,0,0,-1.3333333,3344,1056)"
       clip-path="url(#clipPath802)" />
    <text
       id="text802"
       xml:space="preserve"
       transform="matrix(1.3333333,0,0,1.3330667,3802.8,417.33333)"
       clip-path="url(#clipPath803)"><tspan
         style="font-variant:normal;font-weight:normal;font-size:7.10142px;font-family:Arial;writing-mode:lr-tb;fill:#000000;fill-opacity:1;fill-rule:nonzero;stroke:none"
         x="0 5.0988197 9.0969191 12.697339 16.596018"
         y="0"
         id="tspan802">Hash3</tspan></text>
    <path
       id="path804"
       d="m 334.5,510.7 h -17.1 v 11.4 h 34.1 v -11.4 z"
       style="fill:#ffffff;fill-opacity:1;fill-rule:evenodd;stroke:#4c4c4c;stroke-width:1;stroke-linecap:butt;stroke-linejoin:round;stroke-miterlimit:10;stroke-dasharray:1.1424, 1.1424, 1.1424, 1.1424;stroke-dashoffset:0;stroke-opacity:1"
       transform="matrix(1.3333333,0,0,-1.3333333,3344,1056)"
       clip-path="url(#clipPath805)" />
    <text
       id="text805"
       xml:space="preserve"
       transform="matrix(1.3333333,0,0,1.3330667,3773.6,371.46667)"
       clip-path="url(#clipPath806)"><tspan
         style="font-variant:normal;font-weight:normal;font-size:7.10142px;font-family:Arial;writing-mode:lr-tb;fill:#000000;fill-opacity:1;fill-rule:nonzero;stroke:none"
         x="0 5.0988197 8.9974995 12.597919 16.596018 20.594118"
         y="0"
         id="tspan805">Hash23</tspan></text>
    <path
       id="path807"
       d="m 328.8,510.7 -1,-7.1 -4.1,2 z"
       style="fill:#000000;fill-opacity:1;fill-rule:evenodd;stroke:none"
       transform="matrix(1.3333333,0,0,-1.3333333,3344,1056)"
       clip-path="url(#clipPath808)" />
    <path
       id="path809"
       d="m 317.4,488 8.9,17.8"
       style="fill:none;stroke:#000000;stroke-width:0.1;stroke-linecap:butt;stroke-linejoin:miter;stroke-miterlimit:10;stroke-dasharray:none;stroke-opacity:1"
       transform="matrix(1.3333333,0,0,-1.3333333,3344,1056)"
       clip-path="url(#clipPath810)" />
    <path
       id="path811"
       d="m 340.1,510.7 5.1,-5.1 -4,-2 z"
       style="fill:#000000;fill-opacity:1;fill-rule:evenodd;stroke:none"
       transform="matrix(1.3333333,0,0,-1.3333333,3344,1056)"
       clip-path="url(#clipPath812)" />
    <path
       id="path813"
       d="m 351.5,488 -8.9,17.8"
       style="fill:none;stroke:#000000;stroke-width:0.1;stroke-linecap:butt;stroke-linejoin:miter;stroke-miterlimit:10;stroke-dasharray:none;stroke-opacity:1"
       transform="matrix(1.3333333,0,0,-1.3333333,3344,1056)"
       clip-path="url(#clipPath814)" />
    <path
       id="path815"
       d="m 306,539.1 h -51.1 v 51.2 h 102.3 v -51.2 z"
       style="fill:#ffffff;fill-opacity:1;fill-rule:evenodd;stroke:#000000;stroke-width:1;stroke-linecap:butt;stroke-linejoin:round;stroke-miterlimit:10;stroke-dasharray:none;stroke-opacity:1"
       transform="matrix(1.3333333,0,0,-1.3333333,3344,1056)"
       clip-path="url(#clipPath816)" />
    <text
       id="text816"
       xml:space="preserve"
       transform="matrix(1.3333333,0,0,1.3330667,3691.4667,283.2)"
       clip-path="url(#clipPath817)"><tspan
         style="font-variant:normal;font-weight:normal;font-size:7.10142px;font-family:Arial;writing-mode:lr-tb;fill:#000000;fill-opacity:1;fill-rule:nonzero;stroke:none"
         x="0 4.7011399 6.2989597 10.297059 13.897479 17.497898 19.5005 24.599319 28.597418 32.595516 36.494198 40.492298"
         y="0"
         id="tspan816">Block Header</tspan></text>
    <path
       id="path818"
       d="m 299.3,544.8 h -22.7 v 11.4 h 45.5 v -11.4 z"
       style="fill:#ffffff;fill-opacity:1;fill-rule:evenodd;stroke:#000000;stroke-width:1;stroke-linecap:butt;stroke-linejoin:round;stroke-miterlimit:10;stroke-dasharray:none;stroke-opacity:1"
       transform="matrix(1.3333333,0,0,-1.3333333,3344,1056)"
       clip-path="url(#clipPath819)" />
    <text
       id="text819"
       xml:space="preserve"
       transform="matrix(1.3333333,0,0,1.3330667,3717.4667,325.73333)"
       clip-path="url(#clipPath820)"><tspan
         style="font-variant:normal;font-weight:normal;font-size:7.10142px;font-family:Arial;writing-mode:lr-tb;fill:#000000;fill-opacity:1;fill-rule:nonzero;stroke:none"
         x="0 5.8018603 9.7999592 12.10082 15.70124 17.398479 21.297159 23.299759 28.398579 32.396679 36.394779"
         y="0"
         id="tspan819">Merkle Root</tspan></text>
    <path
       id="path821"
       d="m 289,544.8 -2.3,-6.8 -3.6,2.7 z"
       style="fill:#000000;fill-opacity:1;fill-rule:evenodd;stroke:none"
       transform="matrix(1.3333333,0,0,-1.3333333,3344,1056)"
       clip-path="url(#clipPath822)" />
    <path
       id="path823"
       d="m 271.9,522.1 13.8,18.3"
       style="fill:none;stroke:#000000;stroke-width:0.1;stroke-linecap:butt;stroke-linejoin:miter;stroke-miterlimit:10;stroke-dasharray:none;stroke-opacity:1"
       transform="matrix(1.3333333,0,0,-1.3333333,3344,1056)"
       clip-path="url(#clipPath824)" />
    <path
       id="path825"
       d="m 311.7,544.8 5.9,-4.1 -3.6,-2.7 z"
       style="fill:#000000;fill-opacity:1;fill-rule:evenodd;stroke:none"
       transform="matrix(1.3333333,0,0,-1.3333333,3344,1056)"
       clip-path="url(#clipPath826)" />
    <path
       id="path827"
       d="M 328.8,522.1 315,540.4"
       style="fill:none;stroke:#000000;stroke-width:0.1;stroke-linecap:butt;stroke-linejoin:miter;stroke-miterlimit:10;stroke-dasharray:none;stroke-opacity:1"
       transform="matrix(1.3333333,0,0,-1.3333333,3344,1056)"
       clip-path="url(#clipPath828)" />
    <path
       id="path829"
       d="m 289,561.9 h -22.7 v 11.3 h 45.4 v -11.3 z"
       style="fill:#ffffff;fill-opacity:1;fill-rule:evenodd;stroke:#000000;stroke-width:1;stroke-linecap:butt;stroke-linejoin:round;stroke-miterlimit:10;stroke-dasharray:none;stroke-opacity:1"
       transform="matrix(1.3333333,0,0,-1.3333333,3344,1056)"
       clip-path="url(#clipPath830)" />
    <text
       id="text830"
       xml:space="preserve"
       transform="matrix(1.3333333,0,0,1.3330667,3707.2,302.93333)"
       clip-path="url(#clipPath831)"><tspan
         style="font-variant:normal;font-weight:normal;font-size:7.10142px;font-family:Arial;writing-mode:lr-tb;fill:#000000;fill-opacity:1;fill-rule:nonzero;stroke:none"
         x="0 4.80056 7.1014199 11.09952 14.600519 16.603121 21.701939 25.700039 29.300459"
         y="0"
         id="tspan830">Prev Hash</tspan></text>
    <path
       id="path832"
       d="m 334.5,561.9 h -17.1 v 11.3 h 34.1 v -11.3 z"
       style="fill:#ffffff;fill-opacity:1;fill-rule:evenodd;stroke:#000000;stroke-width:1;stroke-linecap:butt;stroke-linejoin:round;stroke-miterlimit:10;stroke-dasharray:none;stroke-opacity:1"
       transform="matrix(1.3333333,0,0,-1.3333333,3344,1056)"
       clip-path="url(#clipPath833)" />
    <text
       id="text833"
       xml:space="preserve"
       transform="matrix(1.3333333,0,0,1.3330667,3775.8667,302.93333)"
       clip-path="url(#clipPath834)"><tspan
         style="font-variant:normal;font-weight:normal;font-size:7.10142px;font-family:Arial;writing-mode:lr-tb;fill:#000000;fill-opacity:1;fill-rule:nonzero;stroke:none"
         x="0 5.1982393 9.0969191 13.095018 16.695438"
         y="0"
         id="tspan833">Nonce</tspan></text>
    <path
       id="path835"
       d="m 186.7,539.1 h -51.2 v 51.2 h 102.3 v -51.2 z"
       style="fill:#ffffff;fill-opacity:1;fill-rule:evenodd;stroke:#000000;stroke-width:1;stroke-linecap:butt;stroke-linejoin:round;stroke-miterlimit:10;stroke-dasharray:none;stroke-opacity:1"
       transform="matrix(1.3333333,0,0,-1.3333333,3344,1056)"
       clip-path="url(#clipPath836)" />
    <text
       id="text836"
       xml:space="preserve"
       transform="matrix(1.3333333,0,0,1.3330667,3532,283.2)"
       clip-path="url(#clipPath837)"><tspan
         style="font-variant:normal;font-weight:normal;font-size:7.10142px;font-family:Arial;writing-mode:lr-tb;fill:#000000;fill-opacity:1;fill-rule:nonzero;stroke:none"
         x="0 4.7011399 6.2989597 10.297059 13.897479 17.497898 19.5005 24.599319 28.597418 32.595516 36.494198 40.492298"
         y="0"
         id="tspan836">Block Header</tspan></text>
    <path
       id="path838"
       d="m 179,544.8 h -22.8 v 11.4 h 45.5 v -11.4 z"
       style="fill:#ffffff;fill-opacity:1;fill-rule:evenodd;stroke:#000000;stroke-width:1;stroke-linecap:butt;stroke-linejoin:round;stroke-miterlimit:10;stroke-dasharray:none;stroke-opacity:1"
       transform="matrix(1.3333333,0,0,-1.3333333,3344,1056)"
       clip-path="url(#clipPath839)" />
    <text
       id="text839"
       xml:space="preserve"
       transform="matrix(1.3333333,0,0,1.3330667,3557.2,325.73333)"
       clip-path="url(#clipPath840)"><tspan
         style="font-variant:normal;font-weight:normal;font-size:7.10142px;font-family:Arial;writing-mode:lr-tb;fill:#000000;fill-opacity:1;fill-rule:nonzero;stroke:none"
         x="0 5.8018603 9.7999592 12.200239 15.800659 17.398479 21.396578 23.299759 28.497999 32.396679 36.394779"
         y="0"
         id="tspan839">Merkle Root</tspan></text>
    <path
       id="path841"
       d="m 168.6,561.9 h -22.7 v 11.3 h 45.5 v -11.3 z"
       style="fill:#ffffff;fill-opacity:1;fill-rule:evenodd;stroke:#000000;stroke-width:1;stroke-linecap:butt;stroke-linejoin:round;stroke-miterlimit:10;stroke-dasharray:none;stroke-opacity:1"
       transform="matrix(1.3333333,0,0,-1.3333333,3344,1056)"
       clip-path="url(#clipPath842)" />
    <text
       id="text842"
       xml:space="preserve"
       transform="matrix(1.3333333,0,0,1.3330667,3546.9333,302.93333)"
       clip-path="url(#clipPath843)"><tspan
         style="font-variant:normal;font-weight:normal;font-size:7.10142px;font-family:Arial;writing-mode:lr-tb;fill:#000000;fill-opacity:1;fill-rule:nonzero;stroke:none"
         x="0 4.80056 7.20084 11.09952 14.600519 16.603121 21.701939 25.700039 29.300459"
         y="0"
         id="tspan842">Prev Hash</tspan></text>
    <path
       id="path844"
       d="M 214.1,561.9 H 197 v 11.3 h 34.1 v -11.3 z"
       style="fill:#ffffff;fill-opacity:1;fill-rule:evenodd;stroke:#000000;stroke-width:1;stroke-linecap:butt;stroke-linejoin:round;stroke-miterlimit:10;stroke-dasharray:none;stroke-opacity:1"
       transform="matrix(1.3333333,0,0,-1.3333333,3344,1056)"
       clip-path="url(#clipPath845)" />
    <text
       id="text845"
       xml:space="preserve"
       transform="matrix(1.3333333,0,0,1.3330667,3615.6,302.93333)"
       clip-path="url(#clipPath846)"><tspan
         style="font-variant:normal;font-weight:normal;font-size:7.10142px;font-family:Arial;writing-mode:lr-tb;fill:#000000;fill-opacity:1;fill-rule:nonzero;stroke:none"
         x="0 5.0988197 8.9974995 12.995599 16.596018"
         y="0"
         id="tspan845">Nonce</tspan></text>
    <path
       id="path847"
       d="m 425.4,539.1 h -51.2 v 51.2 h 102.3 v -51.2 z"
       style="fill:#ffffff;fill-opacity:1;fill-rule:evenodd;stroke:#000000;stroke-width:1;stroke-linecap:butt;stroke-linejoin:round;stroke-miterlimit:10;stroke-dasharray:none;stroke-opacity:1"
       transform="matrix(1.3333333,0,0,-1.3333333,3344,1056)"
       clip-path="url(#clipPath848)" />
    <text
       id="text848"
       xml:space="preserve"
       transform="matrix(1.3333333,0,0,1.3330667,3850.1333,283.2)"
       clip-path="url(#clipPath849)"><tspan
         style="font-variant:normal;font-weight:normal;font-size:7.10142px;font-family:Arial;writing-mode:lr-tb;fill:#000000;fill-opacity:1;fill-rule:nonzero;stroke:none"
         x="0 4.7011399 6.2989597 10.297059 13.897479 17.497898 19.5005 24.599319 28.597418 32.595516 36.494198 40.492298"
         y="0"
         id="tspan848">Block Header</tspan></text>
    <path
       id="path850"
       d="M 418.7,544.8 H 396 v 11.4 h 45.4 v -11.4 z"
       style="fill:#ffffff;fill-opacity:1;fill-rule:evenodd;stroke:#000000;stroke-width:1;stroke-linecap:butt;stroke-linejoin:round;stroke-miterlimit:10;stroke-dasharray:none;stroke-opacity:1"
       transform="matrix(1.3333333,0,0,-1.3333333,3344,1056)"
       clip-path="url(#clipPath851)" />
    <text
       id="text851"
       xml:space="preserve"
       transform="matrix(1.3333333,0,0,1.3330667,3876.9333,325.73333)"
       clip-path="url(#clipPath852)"><tspan
         style="font-variant:normal;font-weight:normal;font-size:7.10142px;font-family:Arial;writing-mode:lr-tb;fill:#000000;fill-opacity:1;fill-rule:nonzero;stroke:none"
         x="0 5.8018603 9.7999592 12.10082 15.70124 17.398479 21.297159 23.299759 28.398579 32.396679 36.394779"
         y="0"
         id="tspan851">Merkle Root</tspan></text>
    <path
       id="path853"
       d="m 408.3,561.9 h -22.7 v 11.3 h 45.5 v -11.3 z"
       style="fill:#ffffff;fill-opacity:1;fill-rule:evenodd;stroke:#000000;stroke-width:1;stroke-linecap:butt;stroke-linejoin:round;stroke-miterlimit:10;stroke-dasharray:none;stroke-opacity:1"
       transform="matrix(1.3333333,0,0,-1.3333333,3344,1056)"
       clip-path="url(#clipPath854)" />
    <text
       id="text854"
       xml:space="preserve"
       transform="matrix(1.3333333,0,0,1.3330667,3866.6667,302.93333)"
       clip-path="url(#clipPath855)"><tspan
         style="font-variant:normal;font-weight:normal;font-size:7.10142px;font-family:Arial;writing-mode:lr-tb;fill:#000000;fill-opacity:1;fill-rule:nonzero;stroke:none"
         x="0 4.80056 7.1014199 11.09952 14.600519 16.603121 21.701939 25.700039 29.300459"
         y="0"
         id="tspan854">Prev Hash</tspan></text>
    <path
       id="path856"
       d="m 453.8,561.9 h -17 v 11.3 h 34.1 v -11.3 z"
       style="fill:#ffffff;fill-opacity:1;fill-rule:evenodd;stroke:#000000;stroke-width:1;stroke-linecap:butt;stroke-linejoin:round;stroke-miterlimit:10;stroke-dasharray:none;stroke-opacity:1"
       transform="matrix(1.3333333,0,0,-1.3333333,3344,1056)"
       clip-path="url(#clipPath857)" />
    <text
       id="text857"
       xml:space="preserve"
       transform="matrix(1.3333333,0,0,1.3330667,3935.3333,302.93333)"
       clip-path="url(#clipPath858)"><tspan
         style="font-variant:normal;font-weight:normal;font-size:7.10142px;font-family:Arial;writing-mode:lr-tb;fill:#000000;fill-opacity:1;fill-rule:nonzero;stroke:none"
         x="0 5.0988197 9.0969191 13.095018 16.695438"
         y="0"
         id="tspan857">Nonce</tspan></text>
    <path
       id="path859"
       d="m 385.6,567.5 -6.8,-2.2 v 4.5 z"
       style="fill:#000000;fill-opacity:1;fill-rule:evenodd;stroke:none"
       transform="matrix(1.3333333,0,0,-1.3333333,3344,1056)"
       clip-path="url(#clipPath860)" />
    <path
       id="path861"
       d="m 357.2,567.5 h 23"
       style="fill:none;stroke:#000000;stroke-width:0.1;stroke-linecap:butt;stroke-linejoin:miter;stroke-miterlimit:10;stroke-dasharray:none;stroke-opacity:1"
       transform="matrix(1.3333333,0,0,-1.3333333,3344,1056)"
       clip-path="url(#clipPath862)" />
    <path
       id="path863"
       d="m 266.3,567.5 -6.8,-2.2 v 4.5 z"
       style="fill:#000000;fill-opacity:1;fill-rule:evenodd;stroke:none"
       transform="matrix(1.3333333,0,0,-1.3333333,3344,1056)"
       clip-path="url(#clipPath864)" />
    <path
       id="path865"
       d="m 237.8,567.5 h 23"
       style="fill:none;stroke:#000000;stroke-width:0.1;stroke-linecap:butt;stroke-linejoin:miter;stroke-miterlimit:10;stroke-dasharray:none;stroke-opacity:1"
       transform="matrix(1.3333333,0,0,-1.3333333,3344,1056)"
       clip-path="url(#clipPath866)" />
    <path
       id="path867"
       d="m 493.6,567.5 -6.8,-2.2 v 4.5 z"
       style="fill:#000000;fill-opacity:1;fill-rule:evenodd;stroke:none"
       transform="matrix(1.3333333,0,0,-1.3333333,3344,1056)"
       clip-path="url(#clipPath868)" />
    <path
       id="path869"
       d="m 476.5,567.5 h 11.6"
       style="fill:none;stroke:#000000;stroke-width:0.1;stroke-linecap:butt;stroke-linejoin:miter;stroke-miterlimit:10;stroke-dasharray:none;stroke-opacity:1"
       transform="matrix(1.3333333,0,0,-1.3333333,3344,1056)"
       clip-path="url(#clipPath870)" />
    <path
       id="path871"
       d="m 146.9,567.5 -6.8,-2.2 v 4.5 z"
       style="fill:#000000;fill-opacity:1;fill-rule:evenodd;stroke:none"
       transform="matrix(1.3333333,0,0,-1.3333333,3344,1056)"
       clip-path="url(#clipPath872)" />
    <path
       id="path873"
       d="m 124.2,567.5 h 17.3"
       style="fill:none;stroke:#000000;stroke-width:0.1;stroke-linecap:butt;stroke-linejoin:miter;stroke-miterlimit:10;stroke-dasharray:none;stroke-opacity:1"
       transform="matrix(1.3333333,0,0,-1.3333333,3344,1056)"
       clip-path="url(#clipPath874)" />
    <text
       id="text874"
       xml:space="preserve"
       transform="matrix(1.3333333,0,0,1.3330667,3827.2,392)"
       clip-path="url(#clipPath875)"><tspan
         style="font-variant:normal;font-weight:normal;font-size:7.10142px;font-family:Arial;writing-mode:lr-tb;fill:#000000;fill-opacity:1;fill-rule:nonzero;stroke:none"
         x="0 5.8018603 9.7999592 12.10082 15.70124 17.398479 21.297159 23.299759 28.000898 30.401178 34.399277 38.397377 41.997799 45.995899 47.899078 49.90168 53.899776 56.300056 58.203239 62.400177 65.801758"
         y="0"
         id="tspan874">Merkle Branch for Tx3</tspan></text>
    <text
       id="text875"
       xml:space="preserve"
       transform="matrix(1.3333333,0,0,1.3330667,3509.0667,258.66667)"
       clip-path="url(#clipPath876)"><tspan
         style="font-variant:normal;font-weight:normal;font-size:7.10142px;font-family:Arial;writing-mode:lr-tb;fill:#000000;fill-opacity:1;fill-rule:nonzero;stroke:none"
         x="0 3.9980996 7.9961991 11.994298 15.892978 19.891077 23.491497 25.494099 27.496698 32.197838 34.598118 38.596218 42.594318 44.596916 46.897778 50.895878 52.898479 55.199337 62.300758 66.19944 68.599716 72.200134 74.202736 79.301559 83.29966 87.297752 88.895576"
         y="0"
         id="tspan875">Longest Proof-of-Work Chain</tspan></text>
    <path
       id="path877"
       d="m 357.2,448.2 h -11.4 v 11.4 h 22.8 v -11.4 z"
       style="fill:#ffffff;fill-opacity:1;fill-rule:evenodd;stroke:#000000;stroke-width:1;stroke-linecap:butt;stroke-linejoin:round;stroke-miterlimit:10;stroke-dasharray:none;stroke-opacity:1"
       transform="matrix(1.3333333,0,0,-1.3333333,3344,1056)"
       clip-path="url(#clipPath878)" />
    <text
       id="text878"
       xml:space="preserve"
       transform="matrix(1.3333333,0,0,1.3330667,3812.2667,455.2)"
       clip-path="url(#clipPath879)"><tspan
         style="font-variant:normal;font-weight:normal;font-size:7.10142px;font-family:Arial;writing-mode:lr-tb;fill:#000000;fill-opacity:1;fill-rule:nonzero;stroke:none"
         x="0 4.196939 7.5985193"
         y="0"
         id="tspan878">Tx3</tspan></text>
    <path
       id="path880"
       d="m 357.2,476.6 2.3,-6.8 h -4.6 z"
       style="fill:#000000;fill-opacity:1;fill-rule:evenodd;stroke:none"
       transform="matrix(1.3333333,0,0,-1.3333333,3344,1056)"
       clip-path="url(#clipPath881)" />
    <path
       id="path882"
       d="m 357.2,459.6 v 11.6"
       style="fill:none;stroke:#000000;stroke-width:0.1;stroke-linecap:butt;stroke-linejoin:miter;stroke-miterlimit:10;stroke-dasharray:none;stroke-opacity:1"
       transform="matrix(1.3333333,0,0,-1.3333333,3344,1056)"
       clip-path="url(#clipPath883)" />
  </g>
</svg>
