<?xml version="1.0" encoding="UTF-8" standalone="no"?>
<!-- Created with Inkscape (http://www.inkscape.org/) -->

<svg
   version="1.1"
   id="svg1"
   width="148"
   height="88.399963"
   viewBox="0 0 148 88.399963"
   xmlns="http://www.w3.org/2000/svg"
   xmlns:svg="http://www.w3.org/2000/svg">
  <defs
     id="defs1">
    <clipPath
       clipPathUnits="userSpaceOnUse"
       id="clipPath758">
      <path
         d="m 250.6,171 h 111.1 v 66.3 H 250.6 Z"
         clip-rule="evenodd"
         id="path758" />
    </clipPath>
    <clipPath
       clipPathUnits="userSpaceOnUse"
       id="clipPath759">
      <path
         d="m 250.6,171 h 111.1 v 66.3 H 250.6 Z"
         transform="matrix(1,0,0,-1.00467,-278.30003,229.36616)"
         clip-rule="evenodd"
         id="path759" />
    </clipPath>
    <clipPath
       clipPathUnits="userSpaceOnUse"
       id="clipPath761">
      <path
         d="m 250.6,171 h 111.1 v 66.3 H 250.6 Z"
         clip-rule="evenodd"
         id="path761" />
    </clipPath>
    <clipPath
       clipPathUnits="userSpaceOnUse"
       id="clipPath762">
      <path
         d="m 250.6,171 h 111.1 v 66.3 H 250.6 Z"
         transform="matrix(1,0,0,-1.00467,-289.29998,196.91532)"
         clip-rule="evenodd"
         id="path762" />
    </clipPath>
    <clipPath
       clipPathUnits="userSpaceOnUse"
       id="clipPath764">
      <path
         d="m 250.6,171 h 111.1 v 66.3 H 250.6 Z"
         clip-rule="evenodd"
         id="path764" />
    </clipPath>
    <clipPath
       clipPathUnits="userSpaceOnUse"
       id="clipPath765">
      <path
         d="m 250.6,171 h 111.1 v 66.3 H 250.6 Z"
         transform="matrix(1,0,0,-1.00467,-289.29998,180.2378)"
         clip-rule="evenodd"
         id="path765" />
    </clipPath>
    <clipPath
       clipPathUnits="userSpaceOnUse"
       id="clipPath767">
      <path
         d="m 250.6,171 h 111.1 v 66.3 H 250.6 Z"
         clip-rule="evenodd"
         id="path767" />
    </clipPath>
    <clipPath
       clipPathUnits="userSpaceOnUse"
       id="clipPath768">
      <path
         d="m 250.6,171 h 111.1 v 66.3 H 250.6 Z"
         transform="matrix(1,0,0,-1.00467,-289.29998,213.69331)"
         clip-rule="evenodd"
         id="path768" />
    </clipPath>
    <clipPath
       clipPathUnits="userSpaceOnUse"
       id="clipPath770">
      <path
         d="m 250.6,171 h 111.1 v 66.3 H 250.6 Z"
         clip-rule="evenodd"
         id="path770" />
    </clipPath>
    <clipPath
       clipPathUnits="userSpaceOnUse"
       id="clipPath771">
      <path
         d="m 250.6,171 h 111.1 v 66.3 H 250.6 Z"
         transform="matrix(1,0,0,-1.00467,-314.19998,213.69331)"
         clip-rule="evenodd"
         id="path771" />
    </clipPath>
    <clipPath
       clipPathUnits="userSpaceOnUse"
       id="clipPath773">
      <path
         d="m 250.6,171 h 111.1 v 66.3 H 250.6 Z"
         clip-rule="evenodd"
         id="path773" />
    </clipPath>
    <clipPath
       clipPathUnits="userSpaceOnUse"
       id="clipPath774">
      <path
         d="m 250.6,171 h 111.1 v 66.3 H 250.6 Z"
         transform="matrix(1,0,0,-1.00467,-317.10001,196.91532)"
         clip-rule="evenodd"
         id="path774" />
    </clipPath>
    <clipPath
       clipPathUnits="userSpaceOnUse"
       id="clipPath776">
      <path
         d="m 250.6,171 h 111.1 v 66.3 H 250.6 Z"
         clip-rule="evenodd"
         id="path776" />
    </clipPath>
    <clipPath
       clipPathUnits="userSpaceOnUse"
       id="clipPath778">
      <path
         d="m 250.6,171 h 111.1 v 66.3 H 250.6 Z"
         clip-rule="evenodd"
         id="path778" />
    </clipPath>
    <clipPath
       clipPathUnits="userSpaceOnUse"
       id="clipPath780">
      <path
         d="m 250.6,171 h 111.1 v 66.3 H 250.6 Z"
         clip-rule="evenodd"
         id="path780" />
    </clipPath>
    <clipPath
       clipPathUnits="userSpaceOnUse"
       id="clipPath782">
      <path
         d="m 250.6,171 h 111.1 v 66.3 H 250.6 Z"
         clip-rule="evenodd"
         id="path782" />
    </clipPath>
    <clipPath
       clipPathUnits="userSpaceOnUse"
       id="clipPath784">
      <path
         d="m 250.6,171 h 111.1 v 66.3 H 250.6 Z"
         clip-rule="evenodd"
         id="path784" />
    </clipPath>
    <clipPath
       clipPathUnits="userSpaceOnUse"
       id="clipPath786">
      <path
         d="m 250.6,171 h 111.1 v 66.3 H 250.6 Z"
         clip-rule="evenodd"
         id="path786" />
    </clipPath>
    <clipPath
       clipPathUnits="userSpaceOnUse"
       id="clipPath788">
      <path
         d="m 250.6,171 h 111.1 v 66.3 H 250.6 Z"
         clip-rule="evenodd"
         id="path788" />
    </clipPath>
    <clipPath
       clipPathUnits="userSpaceOnUse"
       id="clipPath790">
      <path
         d="m 250.6,171 h 111.1 v 66.3 H 250.6 Z"
         clip-rule="evenodd"
         id="path790" />
    </clipPath>
    <clipPath
       clipPathUnits="userSpaceOnUse"
       id="clipPath792">
      <path
         d="m 250.6,171 h 111.1 v 66.3 H 250.6 Z"
         clip-rule="evenodd"
         id="path792" />
    </clipPath>
    <clipPath
       clipPathUnits="userSpaceOnUse"
       id="clipPath794">
      <path
         d="m 250.6,171 h 111.1 v 66.3 H 250.6 Z"
         clip-rule="evenodd"
         id="path794" />
    </clipPath>
  </defs>
  <g
     id="g719"
     transform="translate(-3678.1333,-739.60004)">
    <path
       id="path757"
       d="m 303.3,171 h -30.5 v 66.3 h 61 V 171 Z"
       style="fill:#ffffff;fill-opacity:1;fill-rule:evenodd;stroke:#000000;stroke-width:1;stroke-linecap:butt;stroke-linejoin:round;stroke-miterlimit:10;stroke-dasharray:none;stroke-opacity:1"
       transform="matrix(1.3333333,0,0,-1.3333333,3344,1056)"
       clip-path="url(#clipPath758)" />
    <text
       id="text758"
       xml:space="preserve"
       transform="matrix(1.3333333,0,0,1.3271356,3715.0667,751.6)"
       clip-path="url(#clipPath759)"><tspan
         style="font-variant:normal;font-weight:normal;font-size:6.93222px;font-family:Arial;writing-mode:lr-tb;fill:#000000;fill-opacity:1;fill-rule:nonzero;stroke:none"
         x="0 3.9028416 6.2043395 10.107182 14.010023 17.510796 21.413637 24.91441 26.917822 28.415182 32.318024"
         y="0"
         id="tspan758">Transaction</tspan></text>
    <path
       id="path760"
       d="m 292.2,193.1 h -8.3 v 11.1 h 16.6 v -11.1 z"
       style="fill:#ffffff;fill-opacity:1;fill-rule:evenodd;stroke:#000000;stroke-width:1;stroke-linecap:butt;stroke-linejoin:round;stroke-miterlimit:10;stroke-dasharray:none;stroke-opacity:1"
       transform="matrix(1.3333333,0,0,-1.3333333,3344,1056)"
       clip-path="url(#clipPath761)" />
    <text
       id="text761"
       xml:space="preserve"
       transform="matrix(1.3333333,0,0,1.3271356,3729.7333,794.66667)"
       clip-path="url(#clipPath762)"><tspan
         style="font-variant:normal;font-weight:normal;font-size:6.93222px;font-family:Arial;writing-mode:lr-tb;fill:#000000;fill-opacity:1;fill-rule:nonzero;stroke:none"
         x="0 2.0034125"
         y="0"
         id="tspan761">In</tspan></text>
    <path
       id="path763"
       d="m 292.2,176.5 h -8.3 v 11.1 h 16.6 v -11.1 z"
       style="fill:#ffffff;fill-opacity:1;fill-rule:evenodd;stroke:#000000;stroke-width:1;stroke-linecap:butt;stroke-linejoin:round;stroke-miterlimit:10;stroke-dasharray:none;stroke-opacity:1"
       transform="matrix(1.3333333,0,0,-1.3333333,3344,1056)"
       clip-path="url(#clipPath764)" />
    <text
       id="text764"
       xml:space="preserve"
       transform="matrix(1.3333333,0,0,1.3271356,3729.7333,816.8)"
       clip-path="url(#clipPath765)"><tspan
         style="font-variant:normal;font-weight:normal;font-size:6.93222px;font-family:Arial;writing-mode:lr-tb;fill:#000000;fill-opacity:1;fill-rule:nonzero;stroke:none"
         x="0 2.0034125 3.9028416"
         y="0"
         id="tspan764">...</tspan></text>
    <path
       id="path766"
       d="m 292.2,209.7 h -8.3 v 11 h 16.6 v -11 z"
       style="fill:#ffffff;fill-opacity:1;fill-rule:evenodd;stroke:#000000;stroke-width:1;stroke-linecap:butt;stroke-linejoin:round;stroke-miterlimit:10;stroke-dasharray:none;stroke-opacity:1"
       transform="matrix(1.3333333,0,0,-1.3333333,3344,1056)"
       clip-path="url(#clipPath767)" />
    <text
       id="text767"
       xml:space="preserve"
       transform="matrix(1.3333333,0,0,1.3271356,3729.7333,772.4)"
       clip-path="url(#clipPath768)"><tspan
         style="font-variant:normal;font-weight:normal;font-size:6.93222px;font-family:Arial;writing-mode:lr-tb;fill:#000000;fill-opacity:1;fill-rule:nonzero;stroke:none"
         x="0 2.0034125"
         y="0"
         id="tspan767">In</tspan></text>
    <path
       id="path769"
       d="m 320,209.7 h -8.4 v 11 h 16.7 v -11 z"
       style="fill:#ffffff;fill-opacity:1;fill-rule:evenodd;stroke:#000000;stroke-width:1;stroke-linecap:butt;stroke-linejoin:round;stroke-miterlimit:10;stroke-dasharray:none;stroke-opacity:1"
       transform="matrix(1.3333333,0,0,-1.3333333,3344,1056)"
       clip-path="url(#clipPath770)" />
    <text
       id="text770"
       xml:space="preserve"
       transform="matrix(1.3333333,0,0,1.3271356,3762.9333,772.4)"
       clip-path="url(#clipPath771)"><tspan
         style="font-variant:normal;font-weight:normal;font-size:6.93222px;font-family:Arial;writing-mode:lr-tb;fill:#000000;fill-opacity:1;fill-rule:nonzero;stroke:none"
         x="0 5.3031507 9.2059917"
         y="0"
         id="tspan770">Out</tspan></text>
    <path
       id="path772"
       d="m 320,193.1 h -8.4 v 11.1 h 16.7 v -11.1 z"
       style="fill:#ffffff;fill-opacity:1;fill-rule:evenodd;stroke:#000000;stroke-width:1;stroke-linecap:butt;stroke-linejoin:round;stroke-miterlimit:10;stroke-dasharray:none;stroke-opacity:1"
       transform="matrix(1.3333333,0,0,-1.3333333,3344,1056)"
       clip-path="url(#clipPath773)" />
    <text
       id="text773"
       xml:space="preserve"
       transform="matrix(1.3333333,0,0,1.3271356,3766.8,794.66667)"
       clip-path="url(#clipPath774)"><tspan
         style="font-variant:normal;font-weight:normal;font-size:6.93222px;font-family:Arial;writing-mode:lr-tb;fill:#000000;fill-opacity:1;fill-rule:nonzero;stroke:none"
         x="0 1.8994291 3.9028416"
         y="0"
         id="tspan773">...</tspan></text>
    <path
       id="path775"
       d="m 283.9,215.2 -6.7,-2.2 v 4.4 z"
       style="fill:#000000;fill-opacity:1;fill-rule:evenodd;stroke:none"
       transform="matrix(1.3333333,0,0,-1.3333333,3344,1056)"
       clip-path="url(#clipPath776)" />
    <path
       id="path777"
       d="m 250.6,215.2 h 28"
       style="fill:none;stroke:#000000;stroke-width:0.1;stroke-linecap:butt;stroke-linejoin:miter;stroke-miterlimit:10;stroke-dasharray:none;stroke-opacity:1"
       transform="matrix(1.3333333,0,0,-1.3333333,3344,1056)"
       clip-path="url(#clipPath778)" />
    <path
       id="path779"
       d="m 283.9,198.6 -6.7,-2.2 v 4.4 z"
       style="fill:#000000;fill-opacity:1;fill-rule:evenodd;stroke:none"
       transform="matrix(1.3333333,0,0,-1.3333333,3344,1056)"
       clip-path="url(#clipPath780)" />
    <path
       id="path781"
       d="m 250.6,198.6 h 28"
       style="fill:none;stroke:#000000;stroke-width:0.1;stroke-linecap:butt;stroke-linejoin:miter;stroke-miterlimit:10;stroke-dasharray:none;stroke-opacity:1"
       transform="matrix(1.3333333,0,0,-1.3333333,3344,1056)"
       clip-path="url(#clipPath782)" />
    <path
       id="path783"
       d="m 283.9,182.1 -6.7,-2.2 v 4.4 z"
       style="fill:#000000;fill-opacity:1;fill-rule:evenodd;stroke:none"
       transform="matrix(1.3333333,0,0,-1.3333333,3344,1056)"
       clip-path="url(#clipPath784)" />
    <path
       id="path785"
       d="m 250.6,182.1 h 28"
       style="fill:none;stroke:#000000;stroke-width:0.1;stroke-linecap:butt;stroke-linejoin:miter;stroke-miterlimit:10;stroke-dasharray:none;stroke-opacity:1"
       transform="matrix(1.3333333,0,0,-1.3333333,3344,1056)"
       clip-path="url(#clipPath786)" />
    <path
       id="path787"
       d="m 361.6,215.2 -6.7,-2.2 v 4.4 z"
       style="fill:#000000;fill-opacity:1;fill-rule:evenodd;stroke:none"
       transform="matrix(1.3333333,0,0,-1.3333333,3344,1056)"
       clip-path="url(#clipPath788)" />
    <path
       id="path789"
       d="m 328.3,215.2 h 27.9"
       style="fill:none;stroke:#000000;stroke-width:0.1;stroke-linecap:butt;stroke-linejoin:miter;stroke-miterlimit:10;stroke-dasharray:none;stroke-opacity:1"
       transform="matrix(1.3333333,0,0,-1.3333333,3344,1056)"
       clip-path="url(#clipPath790)" />
    <path
       id="path791"
       d="m 361.6,198.6 -6.7,-2.2 v 4.4 z"
       style="fill:#000000;fill-opacity:1;fill-rule:evenodd;stroke:none"
       transform="matrix(1.3333333,0,0,-1.3333333,3344,1056)"
       clip-path="url(#clipPath792)" />
    <path
       id="path793"
       d="m 328.3,198.6 h 27.9"
       style="fill:none;stroke:#000000;stroke-width:0.1;stroke-linecap:butt;stroke-linejoin:miter;stroke-miterlimit:10;stroke-dasharray:none;stroke-opacity:1"
       transform="matrix(1.3333333,0,0,-1.3333333,3344,1056)"
       clip-path="url(#clipPath794)" />
  </g>
</svg>
