<?xml version="1.0" encoding="UTF-8" standalone="no"?>
<!-- Created with Inkscape (http://www.inkscape.org/) -->

<svg
   version="1.1"
   id="svg1"
   width="399.37842"
   height="117.68866"
   viewBox="0 0 399.37842 117.68866"
   xmlns="http://www.w3.org/2000/svg"
   xmlns:svg="http://www.w3.org/2000/svg">
  <defs
     id="defs1">
    <clipPath
       clipPathUnits="userSpaceOnUse"
       id="clipPath953">
      <path
         d="m 153.8,502.7 h 304.6 v 92.9 H 153.8 Z"
         clip-rule="evenodd"
         id="path953" />
    </clipPath>
    <clipPath
       clipPathUnits="userSpaceOnUse"
       id="clipPath954">
      <path
         d="m 153.8,502.7 h 304.6 v 92.9 H 153.8 Z"
         transform="matrix(1,0,0,-1.00395,-173.19998,568.43648)"
         clip-rule="evenodd"
         id="path954" />
    </clipPath>
    <clipPath
       clipPathUnits="userSpaceOnUse"
       id="clipPath956">
      <path
         d="m 153.8,502.7 h 304.6 v 92.9 H 153.8 Z"
         clip-rule="evenodd"
         id="path956" />
    </clipPath>
    <clipPath
       clipPathUnits="userSpaceOnUse"
       id="clipPath957">
      <path
         d="m 153.8,502.7 h 304.6 v 92.9 H 153.8 Z"
         transform="matrix(1,0,0,-1.00395,-227.00003,568.43648)"
         clip-rule="evenodd"
         id="path957" />
    </clipPath>
    <clipPath
       clipPathUnits="userSpaceOnUse"
       id="clipPath959">
      <path
         d="m 153.8,502.7 h 304.6 v 92.9 H 153.8 Z"
         clip-rule="evenodd"
         id="path959" />
    </clipPath>
    <clipPath
       clipPathUnits="userSpaceOnUse"
       id="clipPath960">
      <path
         d="m 153.8,502.7 h 304.6 v 92.9 H 153.8 Z"
         transform="matrix(1,0,0,-1.00395,-298.20001,571.44833)"
         clip-rule="evenodd"
         id="path960" />
    </clipPath>
    <clipPath
       clipPathUnits="userSpaceOnUse"
       id="clipPath961">
      <path
         d="m 153.8,502.7 h 304.6 v 92.9 H 153.8 Z"
         transform="matrix(1,0,0,-1.00395,-293.49998,564.72187)"
         clip-rule="evenodd"
         id="path961" />
    </clipPath>
    <clipPath
       clipPathUnits="userSpaceOnUse"
       id="clipPath963">
      <path
         d="m 153.8,502.7 h 304.6 v 92.9 H 153.8 Z"
         clip-rule="evenodd"
         id="path963" />
    </clipPath>
    <clipPath
       clipPathUnits="userSpaceOnUse"
       id="clipPath964">
      <path
         d="m 153.8,502.7 h 304.6 v 92.9 H 153.8 Z"
         transform="matrix(1,0,0,-1.00395,-354.39998,568.43648)"
         clip-rule="evenodd"
         id="path964" />
    </clipPath>
    <clipPath
       clipPathUnits="userSpaceOnUse"
       id="clipPath966">
      <path
         d="m 153.8,502.7 h 304.6 v 92.9 H 153.8 Z"
         clip-rule="evenodd"
         id="path966" />
    </clipPath>
    <clipPath
       clipPathUnits="userSpaceOnUse"
       id="clipPath967">
      <path
         d="m 153.8,502.7 h 304.6 v 92.9 H 153.8 Z"
         transform="matrix(1,0,0,-1.00395,-428.10001,568.43648)"
         clip-rule="evenodd"
         id="path967" />
    </clipPath>
    <clipPath
       clipPathUnits="userSpaceOnUse"
       id="clipPath969">
      <path
         d="m 153.8,502.7 h 304.6 v 92.9 H 153.8 Z"
         clip-rule="evenodd"
         id="path969" />
    </clipPath>
    <clipPath
       clipPathUnits="userSpaceOnUse"
       id="clipPath971">
      <path
         d="m 153.8,502.7 h 304.6 v 92.9 H 153.8 Z"
         clip-rule="evenodd"
         id="path971" />
    </clipPath>
    <clipPath
       clipPathUnits="userSpaceOnUse"
       id="clipPath972">
      <path
         d="m 153.8,502.7 h 304.6 v 92.9 H 153.8 Z"
         transform="matrix(1,0,0,-1.00395,-173.19998,514.22318)"
         clip-rule="evenodd"
         id="path972" />
    </clipPath>
    <clipPath
       clipPathUnits="userSpaceOnUse"
       id="clipPath974">
      <path
         d="m 153.8,502.7 h 304.6 v 92.9 H 153.8 Z"
         clip-rule="evenodd"
         id="path974" />
    </clipPath>
    <clipPath
       clipPathUnits="userSpaceOnUse"
       id="clipPath975">
      <path
         d="m 153.8,502.7 h 304.6 v 92.9 H 153.8 Z"
         transform="matrix(1,0,0,-1.00395,-232.10003,514.22318)"
         clip-rule="evenodd"
         id="path975" />
    </clipPath>
    <clipPath
       clipPathUnits="userSpaceOnUse"
       id="clipPath977">
      <path
         d="m 153.8,502.7 h 304.6 v 92.9 H 153.8 Z"
         clip-rule="evenodd"
         id="path977" />
    </clipPath>
    <clipPath
       clipPathUnits="userSpaceOnUse"
       id="clipPath978">
      <path
         d="m 153.8,502.7 h 304.6 v 92.9 H 153.8 Z"
         transform="matrix(1,0,0,-1.00395,-305.30003,514.22318)"
         clip-rule="evenodd"
         id="path978" />
    </clipPath>
    <clipPath
       clipPathUnits="userSpaceOnUse"
       id="clipPath980">
      <path
         d="m 153.8,502.7 h 304.6 v 92.9 H 153.8 Z"
         clip-rule="evenodd"
         id="path980" />
    </clipPath>
    <clipPath
       clipPathUnits="userSpaceOnUse"
       id="clipPath982">
      <path
         d="m 153.8,502.7 h 304.6 v 92.9 H 153.8 Z"
         clip-rule="evenodd"
         id="path982" />
    </clipPath>
    <clipPath
       clipPathUnits="userSpaceOnUse"
       id="clipPath984">
      <path
         d="m 153.8,502.7 h 304.6 v 92.9 H 153.8 Z"
         clip-rule="evenodd"
         id="path984" />
    </clipPath>
    <clipPath
       clipPathUnits="userSpaceOnUse"
       id="clipPath985">
      <path
         d="m 153.8,502.7 h 304.6 v 92.9 H 153.8 Z"
         transform="matrix(1,0,0,-1.00395,-158.4,535.20574)"
         clip-rule="evenodd"
         id="path985" />
    </clipPath>
    <clipPath
       clipPathUnits="userSpaceOnUse"
       id="clipPath986">
      <path
         d="m 153.8,502.7 h 304.6 v 92.9 H 153.8 Z"
         transform="matrix(1,0,0,-1.00395,-158.90003,588.91706)"
         clip-rule="evenodd"
         id="path986" />
    </clipPath>
    <clipPath
       clipPathUnits="userSpaceOnUse"
       id="clipPath988">
      <path
         d="m 153.8,502.7 h 304.6 v 92.9 H 153.8 Z"
         clip-rule="evenodd"
         id="path988" />
    </clipPath>
    <clipPath
       clipPathUnits="userSpaceOnUse"
       id="clipPath990">
      <path
         d="m 153.8,502.7 h 304.6 v 92.9 H 153.8 Z"
         clip-rule="evenodd"
         id="path990" />
    </clipPath>
    <clipPath
       clipPathUnits="userSpaceOnUse"
       id="clipPath992">
      <path
         d="m 153.8,502.7 h 304.6 v 92.9 H 153.8 Z"
         clip-rule="evenodd"
         id="path992" />
    </clipPath>
    <clipPath
       clipPathUnits="userSpaceOnUse"
       id="clipPath994">
      <path
         d="m 153.8,502.7 h 304.6 v 92.9 H 153.8 Z"
         clip-rule="evenodd"
         id="path994" />
    </clipPath>
    <clipPath
       clipPathUnits="userSpaceOnUse"
       id="clipPath996">
      <path
         d="m 153.8,502.7 h 304.6 v 92.9 H 153.8 Z"
         clip-rule="evenodd"
         id="path996" />
    </clipPath>
  </defs>
  <g
     id="g883"
     transform="translate(-4391.8218,-268.04468)">
    <path
       id="path952"
       d="M 185.7,561.4 H 163.6 V 576 h 44.2 v -14.6 z"
       style="fill:#ffffff;fill-opacity:1;fill-rule:evenodd;stroke:#000000;stroke-width:1;stroke-linecap:butt;stroke-linejoin:round;stroke-miterlimit:10;stroke-dasharray:none;stroke-opacity:1"
       transform="matrix(1.3333333,0,0,-1.3333333,4180,1056)"
       clip-path="url(#clipPath953)" />
    <text
       id="text953"
       xml:space="preserve"
       transform="matrix(1.3333333,0,0,1.3280874,4410.9333,301.06667)"
       clip-path="url(#clipPath954)"><tspan
         style="font-variant:normal;font-weight:normal;font-size:6.12409px;font-family:Arial;writing-mode:lr-tb;fill:#000000;fill-opacity:1;fill-rule:nonzero;stroke:none"
         x="0 1.8004839 5.1993566 8.5982294 12.101212 13.80371 15.206128 16.908627 18.311045 21.709917"
         y="0"
         id="tspan953">Identities</tspan></text>
    <path
       id="path955"
       d="M 244.7,561.4 H 222.6 V 576 h 44.2 v -14.6 z"
       style="fill:#ffffff;fill-opacity:1;fill-rule:evenodd;stroke:#000000;stroke-width:1;stroke-linecap:butt;stroke-linejoin:round;stroke-miterlimit:10;stroke-dasharray:none;stroke-opacity:1"
       transform="matrix(1.3333333,0,0,-1.3333333,4180,1056)"
       clip-path="url(#clipPath956)" />
    <text
       id="text956"
       xml:space="preserve"
       transform="matrix(1.3333333,0,0,1.3280874,4482.6667,301.06667)"
       clip-path="url(#clipPath957)"><tspan
         style="font-variant:normal;font-weight:normal;font-size:6.12409px;font-family:Arial;writing-mode:lr-tb;fill:#000000;fill-opacity:1;fill-rule:nonzero;stroke:none"
         x="0 3.3988726 5.4994373 8.8983097 12.297183 15.500085 18.898956 21.997749 23.700247 25.102665 28.501537 32.00452"
         y="0"
         id="tspan956">Transactions</tspan></text>
    <path
       id="path958"
       d="m 308.5,556.5 h -22.1 v 24.4 h 44.2 v -24.4 z"
       style="fill:#ffffff;fill-opacity:1;fill-rule:evenodd;stroke:#000000;stroke-width:1;stroke-linecap:butt;stroke-linejoin:round;stroke-miterlimit:10;stroke-dasharray:none;stroke-opacity:1"
       transform="matrix(1.3333333,0,0,-1.3333333,4180,1056)"
       clip-path="url(#clipPath959)" />
    <text
       id="text959"
       xml:space="preserve"
       transform="matrix(1.3333333,0,0,1.3280874,4577.6,297.06667)"
       clip-path="url(#clipPath960)"><tspan
         style="font-variant:normal;font-weight:normal;font-size:6.12409px;font-family:Arial;writing-mode:lr-tb;fill:#000000;fill-opacity:1;fill-rule:nonzero;stroke:none"
         x="0 3.5029824 5.5055614 8.9044342 12.003226 13.80371 17.202583"
         y="0"
         id="tspan959">Trusted</tspan></text>
    <text
       id="text960"
       xml:space="preserve"
       transform="matrix(1.3333333,0,0,1.3280874,4571.3333,306)"
       clip-path="url(#clipPath961)"><tspan
         style="font-variant:normal;font-weight:normal;font-size:6.12409px;font-family:Arial;writing-mode:lr-tb;fill:#000000;fill-opacity:1;fill-rule:nonzero;stroke:none"
         x="0 3.6989534 7.097826 8.5002441 10.600808 13.999681 15.70218 19.7992 23.198072 25.298637 27.001135"
         y="0"
         id="tspan960">Third Party</tspan></text>
    <path
       id="path962"
       d="m 372.4,556.5 h -22.1 v 24.4 h 44.2 v -24.4 z"
       style="fill:#ffffff;fill-opacity:1;fill-rule:evenodd;stroke:#000000;stroke-width:1;stroke-linecap:butt;stroke-linejoin:round;stroke-miterlimit:10;stroke-dasharray:none;stroke-opacity:1"
       transform="matrix(1.3333333,0,0,-1.3333333,4180,1056)"
       clip-path="url(#clipPath963)" />
    <text
       id="text963"
       xml:space="preserve"
       transform="matrix(1.3333333,0,0,1.3280874,4652.5333,301.06667)"
       clip-path="url(#clipPath964)"><tspan
         style="font-variant:normal;font-weight:normal;font-size:6.12409px;font-family:Arial;writing-mode:lr-tb;fill:#000000;fill-opacity:1;fill-rule:nonzero;stroke:none"
         x="0 4.3971 7.7959728 11.298955 14.697828 16.498312 19.897184 21.899763 25.402746 28.801619 30.902184 32.604683"
         y="0"
         id="tspan963">Counterparty</tspan></text>
    <path
       id="path965"
       d="m 436.3,556.5 h -22.2 v 24.4 h 44.3 v -24.4 z"
       style="fill:#ffffff;fill-opacity:1;fill-rule:evenodd;stroke:#000000;stroke-width:1;stroke-linecap:butt;stroke-linejoin:round;stroke-miterlimit:10;stroke-dasharray:none;stroke-opacity:1"
       transform="matrix(1.3333333,0,0,-1.3333333,4180,1056)"
       clip-path="url(#clipPath966)" />
    <text
       id="text966"
       xml:space="preserve"
       transform="matrix(1.3333333,0,0,1.3280874,4750.8,301.06667)"
       clip-path="url(#clipPath967)"><tspan
         style="font-variant:normal;font-weight:normal;font-size:6.12409px;font-family:Arial;writing-mode:lr-tb;fill:#000000;fill-opacity:1;fill-rule:nonzero;stroke:none"
         x="0 4.0970197 7.495892 10.894765 12.297183 13.6996"
         y="0"
         id="tspan966">Public</tspan></text>
    <path
       id="path968"
       d="M 404.3,585.8 V 551.6"
       style="fill:none;stroke:#000000;stroke-width:1;stroke-linecap:butt;stroke-linejoin:round;stroke-miterlimit:10;stroke-dasharray:none;stroke-opacity:1"
       transform="matrix(1.3333333,0,0,-1.3333333,4180,1056)"
       clip-path="url(#clipPath969)" />
    <path
       id="path970"
       d="m 185.7,507.5 h -22.1 v 14.7 h 44.2 v -14.7 z"
       style="fill:#ffffff;fill-opacity:1;fill-rule:evenodd;stroke:#000000;stroke-width:1;stroke-linecap:butt;stroke-linejoin:round;stroke-miterlimit:10;stroke-dasharray:none;stroke-opacity:1"
       transform="matrix(1.3333333,0,0,-1.3333333,4180,1056)"
       clip-path="url(#clipPath971)" />
    <text
       id="text971"
       xml:space="preserve"
       transform="matrix(1.3333333,0,0,1.3280874,4410.9333,373.06667)"
       clip-path="url(#clipPath972)"><tspan
         style="font-variant:normal;font-weight:normal;font-size:6.12409px;font-family:Arial;writing-mode:lr-tb;fill:#000000;fill-opacity:1;fill-rule:nonzero;stroke:none"
         x="0 1.8004839 5.1993566 8.5982294 12.101212 13.80371 15.206128 16.908627 18.311045 21.709917"
         y="0"
         id="tspan971">Identities</tspan></text>
    <path
       id="path973"
       d="m 249.6,507.5 h -22.1 v 14.7 h 44.2 v -14.7 z"
       style="fill:#ffffff;fill-opacity:1;fill-rule:evenodd;stroke:#000000;stroke-width:1;stroke-linecap:butt;stroke-linejoin:round;stroke-miterlimit:10;stroke-dasharray:none;stroke-opacity:1"
       transform="matrix(1.3333333,0,0,-1.3333333,4180,1056)"
       clip-path="url(#clipPath974)" />
    <text
       id="text974"
       xml:space="preserve"
       transform="matrix(1.3333333,0,0,1.3280874,4489.4667,373.06667)"
       clip-path="url(#clipPath975)"><tspan
         style="font-variant:normal;font-weight:normal;font-size:6.12409px;font-family:Arial;writing-mode:lr-tb;fill:#000000;fill-opacity:1;fill-rule:nonzero;stroke:none"
         x="0 3.3988726 5.4994373 8.8983097 12.297183 15.500085 18.898956 21.997749 23.700247 25.102665 28.605648 32.00452"
         y="0"
         id="tspan974">Transactions</tspan></text>
    <path
       id="path976"
       d="m 313.4,502.6 h -22.1 v 24.5 h 44.3 v -24.5 z"
       style="fill:#ffffff;fill-opacity:1;fill-rule:evenodd;stroke:#000000;stroke-width:1;stroke-linecap:butt;stroke-linejoin:round;stroke-miterlimit:10;stroke-dasharray:none;stroke-opacity:1"
       transform="matrix(1.3333333,0,0,-1.3333333,4180,1056)"
       clip-path="url(#clipPath977)" />
    <text
       id="text977"
       xml:space="preserve"
       transform="matrix(1.3333333,0,0,1.3280874,4587.0667,373.06667)"
       clip-path="url(#clipPath978)"><tspan
         style="font-variant:normal;font-weight:normal;font-size:6.12409px;font-family:Arial;writing-mode:lr-tb;fill:#000000;fill-opacity:1;fill-rule:nonzero;stroke:none"
         x="0 4.0970197 7.495892 10.894765 12.297183 13.6996"
         y="0"
         id="tspan977">Public</tspan></text>
    <path
       id="path979"
       d="M 217.7,527.1 V 502.6"
       style="fill:none;stroke:#000000;stroke-width:1;stroke-linecap:butt;stroke-linejoin:round;stroke-miterlimit:10;stroke-dasharray:none;stroke-opacity:1"
       transform="matrix(1.3333333,0,0,-1.3333333,4180,1056)"
       clip-path="url(#clipPath980)" />
    <path
       id="path981"
       d="m 291.3,514.9 -7.3,-2.5 v 4.9 z"
       style="fill:#000000;fill-opacity:1;fill-rule:evenodd;stroke:none"
       transform="matrix(1.3333333,0,0,-1.3333333,4180,1056)"
       clip-path="url(#clipPath982)" />
    <path
       id="path983"
       d="m 271.7,514.9 h 13.7"
       style="fill:none;stroke:#000000;stroke-width:0.1;stroke-linecap:butt;stroke-linejoin:miter;stroke-miterlimit:10;stroke-dasharray:none;stroke-opacity:1"
       transform="matrix(1.3333333,0,0,-1.3333333,4180,1056)"
       clip-path="url(#clipPath984)" />
    <text
       id="text984"
       xml:space="preserve"
       transform="matrix(1.3333333,0,0,1.3280874,4391.2,345.2)"
       clip-path="url(#clipPath985)"><tspan
         style="font-variant:normal;font-weight:normal;font-size:6.12409px;font-family:Arial;writing-mode:lr-tb;fill:#000000;fill-opacity:1;fill-rule:nonzero;stroke:none"
         x="0 4.3971 7.9000826 12.199197 13.901695 17.998714 20.099279 21.501698 24.502504 27.901377 31.00017 34.098961 35.80146 40.798721 44.197594 47.700577 51.099449"
         y="0"
         id="tspan984">New Privacy Model</tspan></text>
    <text
       id="text985"
       xml:space="preserve"
       transform="matrix(1.3333333,0,0,1.3280874,4391.8667,273.86667)"
       clip-path="url(#clipPath986)"><tspan
         style="font-variant:normal;font-weight:normal;font-size:6.12409px;font-family:Arial;writing-mode:lr-tb;fill:#000000;fill-opacity:1;fill-rule:nonzero;stroke:none"
         x="0 3.5029824 5.5055614 8.9044342 12.407416 13.809834 15.512333 16.914751 20.313623 23.816605 27.215479 28.617895 30.320395 34.417416 36.517979 37.920395 40.921204 44.320076 47.418869 50.517658 52.220158 57.217419 60.616291 64.015167 67.51815"
         y="0"
         id="tspan985">Traditional Privacy Model</tspan></text>
    <path
       id="path987"
       d="m 286.4,568.7 -7.3,-2.5 v 4.9 z"
       style="fill:#000000;fill-opacity:1;fill-rule:evenodd;stroke:none"
       transform="matrix(1.3333333,0,0,-1.3333333,4180,1056)"
       clip-path="url(#clipPath988)" />
    <path
       id="path989"
       d="m 266.8,568.7 h 13.7"
       style="fill:none;stroke:#000000;stroke-width:0.1;stroke-linecap:butt;stroke-linejoin:miter;stroke-miterlimit:10;stroke-dasharray:none;stroke-opacity:1"
       transform="matrix(1.3333333,0,0,-1.3333333,4180,1056)"
       clip-path="url(#clipPath990)" />
    <path
       id="path991"
       d="m 350.3,568.7 -7.4,-2.5 v 4.9 z"
       style="fill:#000000;fill-opacity:1;fill-rule:evenodd;stroke:none"
       transform="matrix(1.3333333,0,0,-1.3333333,4180,1056)"
       clip-path="url(#clipPath992)" />
    <path
       id="path993"
       d="m 330.6,568.7 h 13.8"
       style="fill:none;stroke:#000000;stroke-width:0.1;stroke-linecap:butt;stroke-linejoin:miter;stroke-miterlimit:10;stroke-dasharray:none;stroke-opacity:1"
       transform="matrix(1.3333333,0,0,-1.3333333,4180,1056)"
       clip-path="url(#clipPath994)" />
    <path
       id="path995"
       d="m 207.8,568.7 h 14.8"
       style="fill:none;stroke:#000000;stroke-width:1;stroke-linecap:butt;stroke-linejoin:round;stroke-miterlimit:10;stroke-dasharray:none;stroke-opacity:1"
       transform="matrix(1.3333333,0,0,-1.3333333,4180,1056)"
       clip-path="url(#clipPath996)" />
  </g>
</svg>
